<svg width="1076" height="502" viewBox="0 0 1076 502" fill="none" xmlns="http://www.w3.org/2000/svg">
<path d="M83.5533 54.0597C83.5533 61.3448 82.1358 67.966 79.3007 73.9232C76.4656 79.8446 72.7513 84.7611 68.1578 88.6728C63.3848 92.728 58.0556 95.7964 52.1701 97.8778C46.3205 99.9593 40.1838 101 33.76 101H0.438913L1.24637 97.4472C2.17944 97.4472 3.48931 97.3575 5.176 97.178C6.89858 96.9986 8.11874 96.7653 8.83648 96.4782C10.1284 95.9758 11.0974 95.276 11.7433 94.3788C12.4252 93.4458 12.8917 92.3512 13.1429 91.0952L25.8469 36.1341C25.9546 35.7035 26.0443 35.237 26.1161 34.7346C26.2238 34.1962 26.2776 33.7656 26.2776 33.4426C26.2776 32.6531 26.134 31.9712 25.8469 31.3971C25.5957 30.787 25.0574 30.2846 24.232 29.8898C23.299 29.4592 22.1506 29.1003 20.7869 28.8132C19.4232 28.4902 18.3824 28.2749 17.6647 28.1672L18.4722 24.6144H50.8243C54.0542 24.6144 57.5711 25.0809 61.3751 26.014C65.1792 26.9112 68.732 28.4723 72.0336 30.6973C75.5146 33.0299 78.2959 36.1521 80.3773 40.0638C82.4947 43.9396 83.5533 48.6049 83.5533 54.0597ZM70.9031 54.1136C70.9031 46.0749 68.7499 39.8305 64.4435 35.3805C60.137 30.9305 54.413 28.7055 47.2715 28.7055C45.8002 28.7055 44.275 28.7414 42.6959 28.8132C41.1169 28.8491 39.8788 28.885 38.9816 28.9208L25.3086 88.1883C25.201 88.6907 25.1113 89.1752 25.0395 89.6417C24.9677 90.1083 24.9318 90.5569 24.9318 90.9875C24.9318 93.1407 25.829 94.6659 27.6234 95.5631C29.4177 96.4244 32.3604 96.855 36.4516 96.855C41.7987 96.855 46.6614 95.6349 51.0397 93.1946C55.4538 90.7542 59.1142 87.5065 62.0211 83.4512C64.9997 79.2524 67.2247 74.6768 68.6961 69.7244C70.1675 64.772 70.9031 59.5684 70.9031 54.1136ZM134.423 57.8817C134.423 61.6857 133.221 64.9515 130.817 67.6789C128.448 70.4063 124.985 72.5775 120.427 74.1924C117.09 75.4125 113.716 76.3994 110.307 77.1531C106.898 77.9067 103.13 78.5347 99.0027 79.0371C99.0027 84.7073 100.043 89.0496 102.125 92.0641C104.242 95.0427 107.329 96.5321 111.384 96.5321C114.972 96.5321 118.131 95.6349 120.858 93.8405C123.621 92.0462 126.331 89.3726 128.986 85.8198L132.055 88.0807C129.184 92.4589 125.595 95.9579 121.289 98.5776C116.982 101.197 112.514 102.507 107.885 102.507C101.533 102.507 96.67 100.731 93.2967 97.178C89.9592 93.6252 88.2904 88.5831 88.2904 82.0516C88.2904 77.5299 88.9902 73.2234 90.3898 69.1323C91.8253 65.0053 93.9067 61.2371 96.6342 57.8279C99.2898 54.4904 102.538 51.7988 106.377 49.7533C110.253 47.7077 114.524 46.6849 119.189 46.6849C124.357 46.6849 128.179 47.7436 130.655 49.8609C133.167 51.9424 134.423 54.616 134.423 57.8817ZM124.518 56.5359C124.518 55.1363 124.321 54.0418 123.926 53.2523C123.532 52.4269 123.029 51.8168 122.419 51.422C121.773 50.9914 121.091 50.7222 120.373 50.6146C119.656 50.5069 118.92 50.4531 118.166 50.4531C113.86 50.4531 109.876 52.8216 106.216 57.5587C102.591 62.2958 100.295 68.1992 99.3257 75.269C101.838 74.9101 104.673 74.4077 107.831 73.7617C110.989 73.0799 113.609 72.2006 115.69 71.124C118.669 69.5809 120.876 67.6071 122.311 65.2027C123.783 62.7623 124.518 59.8734 124.518 56.5359ZM196.544 67.2482C196.544 72.0571 195.7 76.6147 194.014 80.9212C192.327 85.2276 190.084 88.9599 187.285 92.118C184.163 95.599 180.771 98.1829 177.111 99.8696C173.486 101.556 169.754 102.4 165.914 102.4C162.828 102.4 160.298 102.023 158.324 101.269C156.35 100.516 154.592 99.5825 153.049 98.47L149.926 112.574C149.711 113.471 149.532 114.314 149.388 115.104C149.28 115.893 149.227 116.521 149.227 116.988C149.227 117.957 149.568 118.728 150.249 119.302C150.967 119.877 151.775 120.289 152.672 120.541C153.569 120.828 154.574 121.043 155.686 121.186C156.799 121.33 157.804 121.438 158.701 121.509L157.947 124.901H128.287L129.04 121.509C130.189 121.438 131.265 121.348 132.27 121.24C133.275 121.133 134.226 120.953 135.123 120.702C136.236 120.379 137.115 119.769 137.761 118.872C138.443 118.01 138.927 116.934 139.214 115.642L150.465 66.1178C150.752 64.7541 151.021 63.3904 151.272 62.0267C151.523 60.6271 151.649 59.4248 151.649 58.42C151.649 56.4103 151.326 55.0646 150.68 54.3827C150.07 53.7009 148.724 53.3599 146.643 53.3599C145.853 53.3599 144.848 53.5214 143.628 53.8444C142.408 54.1315 141.457 54.3648 140.775 54.5442L141.583 51.099C144.31 49.8789 146.768 48.9458 148.957 48.2999C151.147 47.618 153.013 47.2771 154.556 47.2771C157.068 47.2771 158.97 47.923 160.262 49.215C161.554 50.471 162.361 52.2295 162.684 54.4904H163.115C165.555 52.2295 168.157 50.3634 170.92 48.892C173.72 47.4206 176.501 46.6849 179.264 46.6849C184.719 46.6849 188.954 48.5511 191.968 52.2833C195.019 55.9797 196.544 60.968 196.544 67.2482ZM179.749 89.4803C181.579 86.5375 182.978 83.2 183.947 79.4678C184.952 75.6996 185.455 71.7162 185.455 67.5174C185.455 65.6154 185.275 63.7133 184.916 61.8113C184.593 59.8734 184.055 58.2765 183.301 57.0204C182.512 55.6208 181.435 54.5442 180.072 53.7906C178.708 53.0011 176.913 52.6063 174.688 52.6063C173.038 52.6063 171.207 53.1087 169.198 54.1136C167.224 55.1184 164.802 57.0025 161.931 59.7658L155.04 90.2877C155.292 92.3333 156.386 94.2532 158.324 96.0476C160.298 97.8061 162.666 98.6853 165.43 98.6853C168.265 98.6853 170.92 97.8599 173.397 96.2091C175.873 94.5583 177.99 92.3153 179.749 89.4803ZM237.778 93.8944H237.401C236.612 94.5403 235.661 95.3657 234.548 96.3706C233.471 97.3395 232.198 98.2726 230.726 99.1698C229.327 100.067 227.801 100.839 226.151 101.484C224.5 102.166 222.705 102.507 220.767 102.507C215.564 102.507 211.473 100.641 208.494 96.9089C205.551 93.1766 204.08 88.0807 204.08 81.621C204.08 77.171 204.905 72.8466 206.556 68.6478C208.207 64.449 210.486 60.6809 213.393 57.3434C216.156 54.1494 219.44 51.5835 223.244 49.6456C227.048 47.6718 230.959 46.6849 234.979 46.6849C237.527 46.6849 239.949 47.0259 242.246 47.7077C244.579 48.3896 246.409 49.1611 247.737 50.0224L257.588 47.4924L258.234 48.2999L250.051 83.0206C249.764 84.1331 249.459 85.4968 249.136 87.1117C248.849 88.6907 248.706 89.8571 248.706 90.6107C248.706 92.6563 249.136 94.0379 249.997 94.7557C250.859 95.4734 252.312 95.8323 254.358 95.8323C255.04 95.8323 256.009 95.7246 257.265 95.5093C258.521 95.294 259.49 95.0607 260.171 94.8095L259.364 98.2546C256.134 99.5466 253.73 100.48 252.151 101.054C250.572 101.628 248.652 101.915 246.391 101.915C243.807 101.915 241.761 101.161 240.254 99.6542C238.747 98.147 237.921 96.227 237.778 93.8944ZM245.476 59.8734C245.476 58.6892 245.35 57.5587 245.099 56.4821C244.848 55.4055 244.327 54.4007 243.538 53.4676C242.82 52.5704 241.833 51.8527 240.577 51.3144C239.321 50.7761 237.742 50.5069 235.84 50.5069C233.22 50.5069 230.672 51.3682 228.196 53.0908C225.72 54.8134 223.495 57.1281 221.521 60.0349C219.655 62.7623 218.13 66.064 216.946 69.9398C215.761 73.8156 215.169 77.7452 215.169 81.7287C215.169 83.9178 215.295 85.8557 215.546 87.5424C215.797 89.229 216.282 90.7722 216.999 92.1718C217.681 93.5355 218.668 94.5942 219.96 95.3478C221.252 96.1014 222.885 96.4782 224.859 96.4782C226.868 96.4782 228.968 95.922 231.157 94.8095C233.382 93.6611 235.876 91.6694 238.639 88.8343L245.476 59.8734ZM314.863 55.4593C314.863 56.4642 314.72 57.5767 314.433 58.7968C314.146 59.9811 313.733 60.968 313.195 61.7575C312.549 62.7265 311.831 63.4801 311.041 64.0184C310.288 64.5208 309.193 64.772 307.758 64.772C305.82 64.772 304.366 64.2875 303.397 63.3186C302.428 62.3496 301.944 61.273 301.944 60.0888C301.944 58.9763 302.213 57.7382 302.751 56.3744C303.29 54.9749 303.846 53.5932 304.42 52.2295C303.99 52.2295 303.272 52.3551 302.267 52.6063C301.298 52.8216 300.114 53.2702 298.714 53.9521C297.315 54.6339 295.718 55.6567 293.923 57.0204C292.165 58.3841 290.281 60.1964 288.271 62.4573L279.604 101H269.592L277.451 66.1178C277.631 65.2565 277.882 63.9646 278.205 62.242C278.564 60.5194 278.743 59.2454 278.743 58.42C278.743 56.4103 278.402 55.0646 277.72 54.3827C277.038 53.7009 275.675 53.3599 273.629 53.3599C272.84 53.3599 271.835 53.5035 270.615 53.7906C269.394 54.0418 268.443 54.2571 267.762 54.4365L268.569 50.9914C271.368 49.7353 273.844 48.8023 275.998 48.1922C278.151 47.5821 279.999 47.2771 281.542 47.2771C284.413 47.2771 286.459 48.0666 287.679 49.6456C288.899 51.1888 289.509 53.5214 289.509 56.6436H289.832C294.103 52.9472 297.333 50.3634 299.522 48.892C301.747 47.4206 304.061 46.6849 306.466 46.6849C307.614 46.6849 308.727 46.8285 309.803 47.1156C310.88 47.4027 311.795 47.8872 312.549 48.569C313.338 49.3226 313.912 50.2019 314.271 51.2067C314.666 52.1757 314.863 53.5932 314.863 55.4593ZM330.743 102.13C327.334 102.13 324.84 101.449 323.261 100.085C321.682 98.6853 320.892 96.6936 320.892 94.1097C320.892 93.2843 320.946 92.5127 321.054 91.795C321.162 91.0413 321.305 90.198 321.485 89.2649L329.828 53.3061H320.246L321.377 48.4075H331.174L334.942 32.6352H344.632L340.971 48.4075H355.99L354.859 53.3061H339.948L333.058 82.9668C332.735 84.3305 332.466 85.6583 332.251 86.9502C332.035 88.2063 331.928 89.2829 331.928 90.1801C331.928 92.1538 332.412 93.6073 333.381 94.5403C334.386 95.4375 336.18 95.8861 338.764 95.8861C339.697 95.8861 341.007 95.7784 342.694 95.5631C344.38 95.3119 345.69 95.0069 346.623 94.648L345.708 98.5776C343.196 99.5466 340.828 100.372 338.603 101.054C336.378 101.772 333.758 102.13 330.743 102.13ZM446.587 94.9171L445.779 98.3623C442.478 99.6901 439.84 100.605 437.866 101.108C435.892 101.646 434.206 101.915 432.806 101.915C429.935 101.915 427.782 101.179 426.346 99.7081C424.911 98.2008 424.193 96.3526 424.193 94.1635C424.193 93.374 424.265 92.5127 424.409 91.5796C424.552 90.6107 424.785 89.4803 425.108 88.1883L430.384 68.1095C430.779 66.5664 431.084 65.1668 431.299 63.9107C431.55 62.6547 431.676 61.6498 431.676 60.8962C431.676 58.4918 431.155 56.5898 430.115 55.1902C429.074 53.7906 427.423 53.0908 425.162 53.0908C422.758 53.0908 420.389 53.665 418.057 54.8134C415.76 55.9259 413.158 58.0253 410.251 61.1115L400.885 101H390.872L399.324 65.0412C399.503 64.2517 399.664 63.4263 399.808 62.565C399.987 61.6678 400.077 61.0039 400.077 60.5732C400.077 58.2406 399.485 56.4103 398.301 55.0825C397.152 53.7547 395.448 53.0908 393.187 53.0908C391.141 53.0908 388.88 53.6111 386.404 54.6519C383.928 55.6567 381.057 57.9355 377.791 61.4884L368.694 101H358.681L366.702 66.1178C366.989 64.8617 367.258 63.516 367.51 62.0805C367.797 60.645 367.94 59.4248 367.94 58.42C367.94 56.3386 367.599 54.9749 366.918 54.3289C366.236 53.647 364.908 53.3061 362.934 53.3061C362.145 53.3061 361.122 53.4497 359.866 53.7367C358.646 54.0238 357.695 54.2571 357.013 54.4365L357.82 50.9914C360.619 49.7353 363.096 48.8023 365.249 48.1922C367.402 47.5821 369.25 47.2771 370.793 47.2771C373.664 47.2771 375.692 48.0666 376.876 49.6456C378.096 51.1888 378.742 53.3061 378.814 55.9976H379.137C383.372 52.6601 386.853 50.2736 389.58 48.8382C392.308 47.4027 395.555 46.6849 399.324 46.6849C402.517 46.6849 405.101 47.618 407.075 49.4841C409.085 51.3144 410.215 53.6291 410.466 56.4283H410.682C414.522 53.2343 417.931 50.812 420.91 49.1611C423.924 47.5103 427.423 46.6849 431.407 46.6849C434.852 46.6849 437.489 47.6898 439.32 49.6995C441.186 51.6732 442.119 54.2751 442.119 57.5049C442.119 58.1509 442.011 59.2992 441.796 60.95C441.616 62.6009 441.311 64.2337 440.881 65.8486L436.359 83.1282C436.036 84.2766 435.731 85.6045 435.444 87.1117C435.157 88.5831 435.013 89.7315 435.013 90.5569C435.013 92.6024 435.444 94.002 436.305 94.7557C437.166 95.4734 438.62 95.8323 440.665 95.8323C441.347 95.8323 442.334 95.7425 443.626 95.5631C444.918 95.3837 445.905 95.1684 446.587 94.9171ZM499.61 57.8817C499.61 61.6857 498.408 64.9515 496.003 67.6789C493.635 70.4063 490.172 72.5775 485.614 74.1924C482.276 75.4125 478.903 76.3994 475.494 77.1531C472.085 77.9067 468.316 78.5347 464.189 79.0371C464.189 84.7073 465.23 89.0496 467.312 92.0641C469.429 95.0427 472.515 96.5321 476.57 96.5321C480.159 96.5321 483.317 95.6349 486.045 93.8405C488.808 92.0462 491.517 89.3726 494.173 85.8198L497.241 88.0807C494.37 92.4589 490.782 95.9579 486.475 98.5776C482.169 101.197 477.701 102.507 473.071 102.507C466.719 102.507 461.857 100.731 458.483 97.178C455.146 93.6252 453.477 88.5831 453.477 82.0516C453.477 77.5299 454.177 73.2234 455.576 69.1323C457.012 65.0053 459.093 61.2371 461.821 57.8279C464.476 54.4904 467.724 51.7988 471.564 49.7533C475.44 47.7077 479.711 46.6849 484.376 46.6849C489.544 46.6849 493.366 47.7436 495.842 49.8609C498.354 51.9424 499.61 54.616 499.61 57.8817ZM489.705 56.5359C489.705 55.1363 489.508 54.0418 489.113 53.2523C488.718 52.4269 488.216 51.8168 487.606 51.422C486.96 50.9914 486.278 50.7222 485.56 50.6146C484.842 50.5069 484.107 50.4531 483.353 50.4531C479.047 50.4531 475.063 52.8216 471.403 57.5587C467.778 62.2958 465.481 68.1992 464.512 75.269C467.024 74.9101 469.86 74.4077 473.018 73.7617C476.176 73.0799 478.795 72.2006 480.877 71.124C483.855 69.5809 486.063 67.6071 487.498 65.2027C488.969 62.7623 489.705 59.8734 489.705 56.5359ZM563.614 94.7557L562.807 98.2008C559.577 99.4927 557.065 100.426 555.271 101C553.476 101.61 551.664 101.915 549.834 101.915C546.963 101.915 544.81 101.179 543.374 99.7081C541.939 98.2008 541.221 96.3526 541.221 94.1635C541.221 93.374 541.293 92.5127 541.436 91.5796C541.58 90.6107 541.813 89.4803 542.136 88.1883L547.411 68.1095C547.806 66.5664 548.111 65.1668 548.327 63.9107C548.578 62.6547 548.703 61.6498 548.703 60.8962C548.703 58.4918 548.129 56.5898 546.981 55.1902C545.832 53.7906 544.128 53.0908 541.867 53.0908C539.678 53.0908 537.22 53.8085 534.492 55.244C531.765 56.6795 529.199 58.7609 526.794 61.4884L517.697 101H507.684L515.705 66.1178C515.885 65.2565 516.136 64.0184 516.459 62.4035C516.818 60.7527 516.997 59.4248 516.997 58.42C516.997 56.4103 516.656 55.0646 515.974 54.3827C515.293 53.7009 513.929 53.3599 511.883 53.3599C511.094 53.3599 510.089 53.5035 508.869 53.7906C507.649 54.0418 506.698 54.2571 506.016 54.4365L506.823 50.9914C509.622 49.7353 512.099 48.8023 514.252 48.1922C516.405 47.5821 518.253 47.2771 519.796 47.2771C522.631 47.2771 524.659 48.0487 525.879 49.5918C527.099 51.1349 527.745 53.2702 527.817 55.9976H528.14C532.088 52.8396 535.497 50.5069 538.368 48.9997C541.239 47.4565 544.505 46.6849 548.165 46.6849C551.61 46.6849 554.302 47.6898 556.24 49.6995C558.178 51.6732 559.147 54.2751 559.147 57.5049C559.147 58.1509 559.039 59.2992 558.824 60.95C558.644 62.6009 558.339 64.2337 557.908 65.8486L553.387 83.1282C553.064 84.2766 552.741 85.6045 552.418 87.1117C552.131 88.5831 551.987 89.7315 551.987 90.5569C551.987 92.6024 552.436 94.002 553.333 94.7557C554.23 95.4734 555.701 95.8323 557.747 95.8323C558.429 95.8323 559.398 95.7246 560.654 95.5093C561.946 95.2581 562.933 95.0069 563.614 94.7557ZM583.101 102.13C579.692 102.13 577.198 101.449 575.619 100.085C574.04 98.6853 573.25 96.6936 573.25 94.1097C573.25 93.2843 573.304 92.5127 573.412 91.795C573.519 91.0413 573.663 90.198 573.842 89.2649L582.186 53.3061H572.604L573.735 48.4075H583.532L587.3 32.6352H596.989L593.329 48.4075H608.348L607.217 53.3061H592.306L585.416 82.9668C585.093 84.3305 584.824 85.6583 584.608 86.9502C584.393 88.2063 584.285 89.2829 584.285 90.1801C584.285 92.1538 584.77 93.6073 585.739 94.5403C586.744 95.4375 588.538 95.8861 591.122 95.8861C592.055 95.8861 593.365 95.7784 595.052 95.5631C596.738 95.3119 598.048 95.0069 598.981 94.648L598.066 98.5776C595.554 99.5466 593.185 100.372 590.96 101.054C588.735 101.772 586.116 102.13 583.101 102.13ZM687.317 67.8404C687.317 72.075 686.599 76.3097 685.164 80.5444C683.728 84.7791 681.647 88.4934 678.92 91.6873C676.156 94.9889 672.819 97.6446 668.907 99.6542C665.031 101.628 660.527 102.615 655.396 102.615C649.438 102.615 644.594 100.695 640.861 96.855C637.165 93.0151 635.317 87.8474 635.317 81.3518C635.317 76.5789 636.106 72.1289 637.685 68.0019C639.264 63.8748 641.382 60.2502 644.037 57.1281C646.729 54.0059 650.048 51.4938 653.996 49.5918C657.979 47.6539 662.286 46.6849 666.915 46.6849C673.303 46.6849 678.292 48.6408 681.88 52.5525C685.505 56.4283 687.317 61.5242 687.317 67.8404ZM676.336 65.7948C676.336 60.6988 675.421 56.8769 673.59 54.3289C671.796 51.7809 669.194 50.5069 665.785 50.5069C662.806 50.5069 659.989 51.422 657.334 53.2523C654.714 55.0825 652.453 58.0611 650.551 62.1881C649.079 65.3103 648.003 68.7914 647.321 72.6313C646.639 76.4353 646.298 79.9522 646.298 83.1821C646.298 88.3139 647.177 92.2077 648.936 94.8633C650.73 97.4831 653.422 98.7929 657.011 98.7929C660.204 98.7929 663.04 97.7881 665.516 95.7784C667.992 93.7688 670.002 91.2208 671.545 88.1345C673.088 85.12 674.272 81.6748 675.098 77.799C675.923 73.8873 676.336 69.8859 676.336 65.7948ZM717.57 53.3061L708.096 97.7702C706.409 105.737 702.856 112.251 697.437 117.311C692.018 122.371 686.438 124.901 680.696 124.901C677.538 124.901 675.223 124.291 673.752 123.071C672.245 121.886 671.491 120.379 671.491 118.549C671.491 117.006 671.957 115.642 672.891 114.458C673.824 113.273 675.169 112.681 676.928 112.681C678.04 112.681 679.027 112.932 679.888 113.435C680.714 113.937 681.45 114.565 682.096 115.319C682.598 115.929 683.172 116.754 683.818 117.795C684.428 118.836 684.967 119.733 685.433 120.487C688.196 120.271 690.547 118.405 692.485 114.888C694.459 111.371 696.163 106.347 697.599 99.8157L707.504 53.3061H697.007L698.137 48.4075H708.526L709.28 44.747C710.141 40.5841 711.505 36.8339 713.371 33.4964C715.237 30.159 717.355 27.3239 719.723 24.9912C722.056 22.6944 724.693 20.9001 727.636 19.6082C730.615 18.2803 733.468 17.6164 736.195 17.6164C739.353 17.6164 741.668 18.2265 743.139 19.4467C744.647 20.6309 745.4 22.1382 745.4 23.9684C745.4 25.5116 744.952 26.8753 744.055 28.0596C743.193 29.2438 741.83 29.836 739.963 29.836C738.851 29.836 737.882 29.6027 737.057 29.1362C736.231 28.6338 735.495 27.9878 734.85 27.1983C734.132 26.3011 733.558 25.4577 733.127 24.6682C732.696 23.8787 732.158 22.9995 731.512 22.0305C729.036 22.1382 726.847 23.7711 724.945 26.9291C723.043 30.0872 721.32 35.3446 719.777 42.7015L718.593 48.4075H732.104L730.974 53.3061H717.57Z" fill="#262264"/>
<path d="M454.1 463.099C438.222 463.099 422.969 459.974 408.341 453.722C393.838 447.471 380.96 438.469 369.708 426.717C358.581 414.964 349.704 400.649 343.077 383.771C336.451 366.767 333.138 347.638 333.138 326.384C333.138 305.129 336.388 285.875 342.89 268.622C349.391 251.243 358.393 236.302 369.895 223.8C381.273 211.422 394.713 201.858 410.216 195.106C425.719 188.355 442.285 184.979 459.914 184.979C473.042 184.979 484.919 186.605 495.546 189.855C506.174 193.106 516.301 197.67 525.928 203.546L533.617 190.793H548.62L550.308 285.688H534.93C532.929 276.436 529.929 266.434 525.928 255.682C521.927 244.804 517.238 235.615 511.862 228.113C505.861 219.612 498.735 212.985 490.483 208.234C482.231 203.358 472.792 200.92 462.164 200.92C450.037 200.92 438.722 203.608 428.22 208.984C417.843 214.36 408.841 222.3 401.214 232.802C393.963 242.929 388.274 255.807 384.148 271.435C380.022 287.063 377.96 304.504 377.96 323.758C377.96 340.762 380.085 356.39 384.336 370.643C388.712 384.771 394.901 397.211 402.902 407.963C410.904 418.59 420.343 426.904 431.221 432.906C442.223 438.907 454.475 441.908 467.978 441.908C478.105 441.908 487.42 440.345 495.921 437.219C504.423 433.968 511.8 429.718 518.051 424.466C524.302 418.965 529.803 412.714 534.554 405.713C539.305 398.711 543.181 391.085 546.182 382.833L560.247 389.584C549.495 415.965 535.242 434.844 517.488 446.221C499.735 457.473 478.605 463.099 454.1 463.099ZM760.809 334.823C766.435 341.074 770.561 347.951 773.186 355.452C775.937 362.829 777.312 371.455 777.312 381.333C777.312 404.837 768.623 424.216 751.244 439.47C733.866 454.723 712.299 462.349 686.543 462.349C674.666 462.349 662.789 460.536 650.911 456.911C639.034 453.16 628.781 448.659 620.155 443.408L612.091 457.098H597.087L594.462 365.954H609.653C612.778 377.207 616.404 387.396 620.53 396.523C624.781 405.525 630.344 413.964 637.221 421.841C643.722 429.217 651.286 435.094 659.913 439.47C668.665 443.845 678.792 446.033 690.294 446.033C698.921 446.033 706.423 444.908 712.799 442.658C719.3 440.407 724.551 437.219 728.552 433.093C732.553 428.967 735.491 424.154 737.366 418.653C739.367 413.027 740.367 406.588 740.367 399.336C740.367 388.709 737.366 378.832 731.365 369.705C725.364 360.453 716.425 353.452 704.547 348.701C696.42 345.45 687.106 341.887 676.604 338.011C666.102 334.01 657.037 330.259 649.411 326.759C634.408 320.007 622.718 311.193 614.341 300.316C606.089 289.313 601.963 274.998 601.963 257.369C601.963 247.242 604.026 237.803 608.152 229.051C612.278 220.299 618.154 212.485 625.781 205.609C633.032 199.107 641.597 194.044 651.474 190.418C661.351 186.667 671.665 184.792 682.418 184.792C694.67 184.792 705.61 186.667 715.237 190.418C724.989 194.169 733.866 198.545 741.867 203.546L749.556 190.793H764.56L766.06 279.124H750.869C748.119 268.997 744.993 259.307 741.492 250.055C738.117 240.803 733.678 232.427 728.177 224.925C722.801 217.674 716.237 211.922 708.485 207.672C700.734 203.296 691.232 201.108 679.98 201.108C668.102 201.108 657.975 204.921 649.598 212.548C641.222 220.174 637.033 229.489 637.033 240.491C637.033 251.993 639.721 261.558 645.097 269.184C650.473 276.686 658.288 282.875 668.54 287.751C677.667 292.127 686.606 295.94 695.358 299.191C704.235 302.316 712.799 305.692 721.051 309.318C728.552 312.568 735.741 316.257 742.618 320.382C749.619 324.508 755.683 329.322 760.809 334.823ZM1046.14 378.519L1041.07 456.911H820.154V443.595C823.904 443.345 828.905 442.845 835.157 442.095C841.408 441.22 845.471 440.345 847.347 439.47C851.347 437.594 854.098 435.156 855.598 432.156C857.224 429.155 858.036 425.342 858.036 420.716V229.426C858.036 225.3 857.349 221.674 855.973 218.549C854.598 215.298 851.723 212.673 847.347 210.672C843.971 209.047 839.408 207.609 833.656 206.359C828.03 205.109 823.529 204.358 820.154 204.108V190.793H1026.07V254.931H1012.01C1009.51 245.429 1004.07 235.365 995.69 224.738C987.438 213.985 979.562 208.109 972.06 207.109C968.184 206.609 963.558 206.234 958.182 205.984C952.806 205.734 946.68 205.609 939.803 205.609H897.982V311.381H927.988C937.615 311.381 944.617 310.505 948.993 308.755C953.494 306.88 957.432 303.816 960.808 299.566C963.558 295.94 965.871 291.126 967.747 285.125C969.747 278.999 971.06 273.248 971.685 267.872H985.75V371.956H971.685C971.185 365.954 969.81 359.641 967.559 353.014C965.434 346.263 963.183 341.387 960.808 338.386C956.932 333.51 952.493 330.322 947.492 328.822C942.616 327.321 936.115 326.571 927.988 326.571H897.982V406.463C897.982 414.464 898.545 420.778 899.67 425.404C900.795 430.03 902.983 433.531 906.234 435.906C909.485 438.282 913.923 439.845 919.549 440.595C925.175 441.22 933.177 441.532 943.554 441.532C947.68 441.532 953.119 441.532 959.87 441.532C966.621 441.532 972.31 441.282 976.936 440.782C981.687 440.282 986.563 439.407 991.564 438.157C996.69 436.781 1000.32 434.969 1002.44 432.718C1008.19 426.717 1014.19 417.653 1020.44 405.525C1026.82 393.272 1030.88 384.271 1032.64 378.519H1046.14Z" fill="#F4CE14"/>
</svg>
