<svg width="1273" height="481" viewBox="0 0 1273 481" fill="none" xmlns="http://www.w3.org/2000/svg">
<path d="M198.891 165.306C203.339 161.027 208.855 160.903 214.192 160.576C219.197 160.268 224.235 160.387 229.256 160.473C232.466 160.528 233.847 158.96 233.529 155.968C232.573 146.951 228.794 138.943 221.877 133.404C217.596 129.976 216.885 126.013 216.963 121.724C217.042 117.426 217.375 112.973 219.32 108.852C222.479 102.16 227.807 98.8481 234.992 98.662C238.091 98.5817 239.319 98.0915 239.601 94.4921C240.721 80.1842 249.86 73.2798 262.326 69.3731C264.217 68.7806 265.33 70.032 266.054 71.58C267.729 75.1623 268.426 78.9565 268.393 83.1277C270.534 80.6503 272.904 78.6118 275.628 77.0387C278.872 75.1655 280.509 76.0511 280.908 79.9965C281.487 85.7167 280.455 91.2075 278.227 96.4872C277.627 97.9096 277.014 99.3268 276.236 101.146C278.889 99.5468 280.517 97.5797 282.198 95.648C283.041 94.6779 283.793 93.2616 285.457 93.8054C287.102 94.3428 286.852 95.8472 287.027 97.1778C289.167 113.489 284.831 128.151 275.797 141.635C275.323 142.343 274.892 143.082 274.491 143.833C274.396 144.011 274.502 144.297 274.539 144.932C278.549 144.206 282.195 142.517 285.996 141.376C291.817 139.629 297.558 137.331 303.874 138.98C306.779 139.739 309.531 140.819 311.634 142.913C313.406 144.678 315.268 145.254 317.593 144.708C320.443 144.038 323.238 144.675 325.942 145.334C330.289 146.393 332.002 150.082 330.142 154.16C329.337 155.924 328.391 157.825 326.984 159.069C323.869 161.822 322.982 165.082 322.831 169.124C322.441 179.608 314.902 188.194 304.078 190.904C300.044 191.914 295.92 192.521 291.729 192.47C288.953 192.436 286.176 192.463 282.927 192.463C292.788 201.008 306.466 202.516 313.738 191.577C314.503 190.427 315.062 188.706 316.893 188.866C318.939 189.046 319.091 190.966 319.585 192.393C321.554 198.07 325.719 201.034 331.395 202.215C331.633 202.265 331.915 202.199 332.12 202.3C333.737 203.096 336.624 202.188 336.781 204.857C336.935 207.475 334.194 207.362 332.478 207.998C325.781 210.479 324.086 215.357 328.014 221.075C331.241 225.772 329.783 231.605 324.505 234.99C320.859 237.328 316.721 237.724 312.543 237.907C311.721 237.943 310.846 237.448 309.934 238.324C311.035 244.42 312.104 250.642 312.013 257.005C311.796 272.117 308.814 286.687 302.483 300.354C299.817 306.109 300.293 311.753 300.445 317.559C300.495 319.48 300.272 320.932 298.071 320.635C292.466 319.88 288.451 322.593 284.827 326.322C284.059 327.112 283.231 327.863 282.57 328.737C280.577 331.374 278.909 331.022 277.166 328.426C273.864 323.509 269.496 319.588 264.81 315.339C251.512 328.189 246.31 343.481 248.845 362.284C253.727 357.065 256.978 351.571 259.824 345.824C262.444 340.533 262.393 340.475 267.496 343.71C280.524 351.968 293.517 360.282 306.574 368.495C308.696 369.829 309.257 371.219 308.421 373.656C303.941 386.723 296.846 398.197 287.539 408.325C266.769 430.929 240.17 442.636 210.951 449.857C190.82 454.833 170.364 455.536 150.077 453.868C118.685 451.287 89.1356 442.054 63.5215 422.831C46.9091 410.363 34.4841 394.579 27.1837 374.933C25.9247 371.545 26.5968 369.704 29.7106 367.785C42.2179 360.078 54.5298 352.055 66.9776 344.25C69.0155 342.973 69.7323 341.788 69.2543 339.222C68.0691 332.86 67.3778 326.407 66.4194 319.494C64.0751 322.189 61.6074 324.332 57.9847 322.947C54.7262 321.702 53.8966 318.287 51.8022 315.4C50.4648 318.322 50.8631 320.957 50.9512 323.567C51.0277 325.833 50.316 327.117 47.6596 326.324C36.4724 322.983 28.2862 311.713 29.2669 300.507C29.8113 294.286 31.4275 288.257 33.5856 282.384C35.4276 277.372 35.2906 277.104 30.9915 273.89C28.4306 271.975 25.5327 271.162 22.4165 271.03C19.9365 270.926 18.3827 270.149 17.8945 267.333C14.7769 249.357 16.9953 232.941 31.235 219.87C31.6708 219.47 32.1158 219.08 33.1714 218.135C29.9596 218.135 27.4488 218.143 24.938 218.133C18.9586 218.111 18.8217 217.962 18.8273 211.837C18.8318 206.936 18.9313 202.032 18.7923 197.134C18.6566 192.357 19.1044 187.819 23.2202 183.697C18.9617 183.411 19.0451 180.74 19.0521 178.081C19.073 170.117 19.0173 162.152 19.0925 154.188C19.1975 143.085 27.053 135.326 38.1667 135.266C42.7573 135.241 47.3481 135.262 52.3857 135.262C51.3399 129.764 50.5738 125.093 49.5472 120.481C47.6624 112.011 48.4223 103.437 48.3101 94.8952C48.2948 93.7296 48.5703 92.6529 49.8553 92.276C51.1712 91.8899 51.8582 92.7855 52.5392 93.7069C53.2784 94.7072 54.1404 95.7179 55.5234 95.5107C57.1165 95.272 56.9718 93.7835 57.2875 92.6377C57.6441 91.3433 58.0617 90.0648 58.483 88.7894C61.7469 78.9086 66.8123 76.3088 76.7477 79.5429C77.0625 78.7795 77.4031 78.0107 77.6996 77.2252C80.23 70.5202 85.7551 69.1982 91.2681 73.9246C95.351 77.425 98.0178 81.9059 100.113 87.0566C101.622 85.0232 102.755 83.2833 104.099 81.7263C107.367 77.9423 110.909 78.4301 112.985 82.9205C114.281 85.7267 114.978 88.6781 114.961 91.8065C114.921 99.5257 115.085 107.249 114.887 114.963C114.802 118.237 116.451 118.5 118.979 118.456C121.455 118.413 123.509 118.618 123.479 114.981C123.347 98.931 123.735 82.8714 123.329 66.8304C123.096 57.6066 131.048 50.4236 138.694 51.4962C141.417 51.8782 143.371 51.478 144.376 48.0488C145.336 44.77 148.313 42.8086 152.017 42.7163C154.451 42.6556 156.901 42.5267 159.682 43.4399C161.614 34.1108 168.144 31.594 176.24 33.3195C185.906 35.3796 184.856 43.7878 185.005 51.5125C189.973 51.5125 194.619 51.8442 199.201 51.4413C207.911 50.6754 215.376 56.7167 215.449 66.8056C215.615 89.9614 215.483 113.119 215.532 136.276C215.539 139.187 214.195 140.118 211.471 140.092C203.507 140.017 195.54 140.183 187.579 140.024C184.522 139.962 183.203 140.674 183.263 144.079C183.459 155.103 183.327 166.133 183.351 177.16C183.353 178.227 183.053 179.364 183.989 180.666C187.693 179.009 190.498 176.28 192.932 173.086C194.858 170.559 196.778 168.027 198.891 165.306ZM236.946 226.525C239.567 226.438 240.96 227.674 241.505 230.276C242.374 234.416 242.483 238.584 241.704 242.673C239.194 255.847 231.891 266.517 223.518 276.576C221.285 279.258 218.96 281.865 216.642 284.548C218.077 285.712 219.348 285.295 220.513 285.3C229.213 285.341 237.915 285.44 246.611 285.263C249.885 285.197 251.139 286.113 251.055 289.585C250.837 298.647 250.85 307.721 251.048 316.784C251.121 320.14 250.081 321.23 246.688 321.198C231.251 321.05 215.81 321.232 200.373 321.07C196.922 321.033 195.726 321.895 195.755 325.54C195.92 346.246 195.828 366.954 195.847 387.662C195.848 388.852 195.522 390.122 196.335 391.2C196.585 391.29 196.832 391.476 197.035 391.436C214.98 387.931 230.956 380.498 244.247 367.723C245.359 366.655 245.312 365.461 245.032 364.022C241.078 343.695 247.316 326.67 261.82 312.301C263.901 310.24 265.523 310.165 267.698 312.224C271.945 316.245 276.29 320.158 280.223 325.215C284.241 320.243 289.037 317.296 294.943 316.359C296.265 316.149 296.703 315.344 296.803 314.063C297.206 308.931 296.49 304.628 292.382 300.542C279.692 287.923 275.631 272.391 278.128 254.766C279.579 244.528 279.589 234.268 274.172 224.825C273.454 223.572 272.472 221.967 274.137 220.935C275.964 219.804 276.927 221.316 277.807 222.79C283.082 231.629 283.828 241.254 282.87 251.195C282.131 258.861 281.103 266.505 282.527 274.228C284.452 284.664 290.241 292.691 297.393 299.866C298.766 299.211 298.968 298.344 299.283 297.561C304.013 285.799 307.308 273.679 307.722 260.949C308.222 245.575 305.79 230.935 296.072 218.314C295.21 217.195 294.569 215.836 296.008 214.777C297.431 213.729 298.564 214.729 299.427 215.839C302.829 220.219 305.637 224.94 307.42 230.22C307.857 231.513 308.146 232.987 309.823 233.085C313.978 233.328 318.172 233.685 322.019 231.497C325.79 229.352 326.592 225.877 323.737 222.654C322.206 220.925 321.828 219.146 321.759 216.984C321.617 212.522 323.314 208.928 326.849 205.773C322.309 203.248 318.476 200.336 316.182 195.517C311.13 201.022 305.39 204.067 298.333 203.414C289.246 202.572 281.569 198.39 274.766 192.486C273.678 191.542 272.268 190.561 273.174 188.827C274.025 187.199 275.618 187.551 277.094 187.727C284.773 188.642 292.468 188.835 300.1 187.478C311.3 185.487 316.869 179.919 318.686 169.142C319.08 166.805 319.46 164.71 315.765 164.271C304.107 162.885 293.223 163.609 284.887 173.333C283.706 174.71 282.223 175.482 280.888 173.764C279.138 171.511 276.855 171.715 274.545 171.956C263.247 173.134 253.039 170.238 243.645 163.99C242.072 162.944 240.881 161.235 238.688 160.766C238.011 165.161 237.217 169.367 235.391 173.249C234.579 174.975 235.238 175.984 236.403 177.069C242.583 182.829 244.819 190.076 244.224 198.317C244.137 199.528 244.168 200.358 245.309 201.099C252.643 205.865 253.76 212.692 251.927 220.666C249.961 229.216 249.122 237.883 251.739 246.447C253.507 252.233 255.937 257.766 261.629 260.916C264.532 262.523 267.255 261.26 268.132 258.074C269.437 253.332 267.864 249.076 263.719 246.312C262.563 245.541 261.211 244.847 262.08 243.197C262.863 241.71 264.272 241.809 265.606 242.434C270.177 244.577 272.11 248.636 272.897 253.239C273.594 257.31 272.769 261.627 269.273 263.79C266.389 265.574 265.572 267.797 264.59 270.543C262.2 277.223 255.233 279.754 248.946 276.473C247.658 275.801 246.516 274.986 247.123 273.372C247.682 271.886 249.018 272.083 250.257 272.435C251.434 272.769 252.579 273.319 253.774 273.461C256.997 273.843 259.151 272.315 260.397 269.382C261.604 266.541 260.493 264.862 257.899 263.499C256.435 262.729 255.161 261.409 254.097 260.098C248.82 253.592 246.517 245.971 246.077 237.719C245.787 232.273 246.226 226.849 247.319 221.078C242.336 221.078 237.946 221.078 233.555 221.078C222.16 221.077 210.765 221.065 199.37 221.087C197.83 221.09 195.894 220.748 195.88 223.194C195.837 231.112 195.864 239.03 195.864 247.905C201.452 242.78 206.566 238.458 212.416 235.174C219.89 230.977 227.378 226.772 236.946 226.525ZM147.106 388.011C147.446 390.086 146.083 393.037 149.797 393.4C162.016 394.596 174.241 394.624 186.437 393.23C191.674 392.632 191.661 392.44 191.661 387.134C191.664 365.321 191.737 343.508 191.586 321.696C191.561 318.059 192.501 316.813 196.301 316.863C211.739 317.063 227.182 316.869 242.621 317.004C245.756 317.032 246.989 316.24 246.873 312.905C246.64 306.173 246.67 299.424 246.86 292.689C246.947 289.615 245.897 288.699 242.863 288.723C227.424 288.844 211.983 288.775 196.542 288.763C191.684 288.76 191.669 288.746 191.668 283.919C191.66 262.351 191.598 240.783 191.728 219.216C191.747 215.941 190.696 214.954 187.515 215.055C181.149 215.256 174.772 215.172 168.401 215.092C166.282 215.066 164.769 215.591 163.434 217.437C160.102 222.041 156.074 226.114 150.948 228.592C147.702 230.161 147 232.213 147.027 235.488C147.16 251.663 147.001 267.84 147.156 284.014C147.191 287.627 146.22 288.908 142.406 288.858C126.968 288.656 111.524 288.904 96.0861 288.7C92.2602 288.649 91.2396 289.901 91.3859 293.543C91.6464 300.027 91.5967 306.534 91.3947 313.022C91.2992 316.089 92.3207 317.024 95.3634 316.999C110.68 316.873 125.999 316.939 141.317 316.943C147.055 316.945 147.068 316.952 147.072 322.603C147.088 344.171 147.095 365.739 147.106 388.011ZM292.365 395.951C296.669 389.524 300.33 382.771 303.29 375.604C304.375 372.977 303.805 371.67 301.531 370.269C293.195 365.131 284.953 359.841 276.676 354.608C272.661 352.07 268.645 349.534 264.759 347.079C263.04 348.073 262.64 349.569 261.96 350.831C251.135 370.887 234.557 384.231 213.207 391.435C186.265 400.524 158.878 401.316 131.291 394.22C105.074 387.476 84.6954 373.18 72.1077 348.724C71.7788 348.085 71.5151 347.344 70.1441 347.274C57.9565 354.979 45.4757 362.931 32.9163 370.756C30.4974 372.263 31.2941 373.839 32.0473 375.742C39.5806 394.777 52.1616 409.794 68.8006 421.446C94.5834 439.501 123.692 447.966 154.753 449.964C177.481 451.425 199.953 449.361 221.877 442.661C249.83 434.119 274.298 420.355 292.365 395.951ZM124.963 388.134C129.31 389.348 133.585 390.813 138.059 391.567C142.268 392.277 142.515 392.178 142.525 387.938C142.559 374.22 142.569 360.501 142.534 346.783C142.531 345.518 142.987 344.097 141.661 342.701C128.436 350.511 115.455 358.85 100.286 365.535C102.659 356.823 105.883 349.735 109.083 342.69C112.341 335.518 116.17 328.605 119.976 321.134C110.285 321.134 101.116 321.007 91.9542 321.199C88.4578 321.272 87.2296 320.157 87.2796 316.598C87.4518 304.352 87.3644 292.101 87.3352 279.853C87.3318 278.423 87.6802 276.919 86.8856 275.582C79.0042 274.668 76.2236 273.066 73.225 267.844C71.3787 264.629 70.1177 261.224 69.5577 257.553C69.0547 254.255 68.4954 250.965 67.8968 247.276C62.3084 252.438 56.5388 253.783 49.9482 249.934C49.1041 253.617 49.6613 256.908 49.4826 260.155C49.0765 267.535 47.1455 274.164 40.465 278.446C39.4837 279.075 38.9371 279.993 38.511 281.033C35.2218 289.056 33.3017 297.321 33.9814 306.067C34.4428 312.004 39.7869 318.329 45.8175 319.98C46.5473 319.086 46.6751 318.006 46.8236 316.905C47.1453 314.519 48.3256 312.497 49.8782 310.745C52.397 307.902 54.2838 308.352 55.6054 311.914C56.2843 313.744 56.9874 315.59 57.9302 317.29C59.2935 319.748 60.8302 319.554 62.2963 317.259C63.7715 314.949 64.4172 312.331 65.1401 309.747C65.4632 308.592 65.8922 307.568 67.2381 307.611C68.7768 307.66 69.1524 308.841 69.3437 310.147C70.314 316.775 71.7839 323.37 72.1931 330.031C72.9137 341.761 77.5077 351.643 84.684 360.698C95.1523 373.908 108.822 382.291 124.963 388.134ZM56.2494 160.128C48.4074 160.126 40.5644 160.054 32.7236 160.154C29.3028 160.197 26.153 159.75 23.5908 156.843C23.5908 163.318 23.6511 169.398 23.5618 175.475C23.5249 177.987 24.5015 178.997 27.0357 178.929C31.4437 178.812 35.8573 178.883 40.2683 178.909C43.4517 178.927 46.6373 178.944 49.8163 179.086C50.7646 179.129 51.7594 179.505 52.1635 180.58C52.4532 181.351 52.2372 182.045 51.6631 182.581C50.7862 183.4 49.6566 183.405 48.5479 183.408C43.6466 183.42 38.7417 183.309 33.8451 183.465C27.8336 183.656 23.2518 187.862 23.0942 193.408C22.9272 199.285 23.111 205.171 23.0162 211.051C22.9797 213.32 23.9338 214.063 26.096 214.019C30.5053 213.927 34.9189 213.941 39.3283 214.029C40.5466 214.053 42.2294 213.362 42.7939 215.185C43.369 217.042 41.8923 217.737 40.6126 218.511C36.2992 221.122 32.1459 223.961 29.1282 228.095C21.0474 239.164 19.644 251.625 21.6089 264.774C21.8705 266.524 23.0242 266.83 24.481 266.949C28.4053 267.271 31.7429 269.06 34.7866 271.388C39.3041 274.844 40.6544 274.557 43.0679 269.194C43.7151 267.756 44.249 266.213 44.5084 264.663C46.0893 255.218 44.7153 245.553 46.7889 236.094C47.585 232.462 46.7753 228.508 47.102 224.736C47.3961 221.34 50.2337 219.206 52.8072 220.037C54.6174 220.622 55.4138 222.341 53.65 223.146C50.5296 224.57 51.1088 226.983 51.1145 229.315C51.1241 233.232 51.3484 237.148 51.3884 241.066C51.448 246.917 56.0161 249.715 61.3066 247.018C64.2475 245.519 66.2982 243.143 67.6104 240.102C68.2257 238.677 68.7063 236.688 70.7351 237.113C72.6777 237.521 72.4644 239.352 72.4773 241.025C72.5043 244.521 72.4557 248.048 73.3723 251.589C76.5218 251.244 77.121 249.05 77.1529 246.611C77.2344 240.364 77.1653 234.114 77.2418 227.866C77.2638 226.075 77.0867 223.938 79.5347 223.448C81.9742 222.959 82.1186 221.3 82.1101 219.327C82.0745 211.117 82.0572 202.907 82.1173 194.698C82.1552 189.531 83.4111 184.698 87.1541 180.926C88.6799 179.389 88.1858 178.175 87.3781 176.703C85.0975 172.547 83.9646 168.021 83.7624 163.349C83.6464 160.67 82.5333 160.067 80.1431 160.096C72.4246 160.189 64.7043 160.129 56.2494 160.128ZM73.4037 82.9736C69.0692 81.3173 66.7462 81.9904 64.3896 85.7866C62.7659 88.4023 61.8057 91.2897 61.1681 94.3155C60.4908 97.5301 58.8382 100.506 55.2225 100.13C51.8673 99.7809 51.5066 101.438 51.8018 103.65C52.7505 110.762 52.6898 117.976 54.5441 125.008C57.2187 135.149 57.0436 135.195 67.5629 135.266C77.9897 135.336 85.5982 142.532 86.2886 152.976C86.3516 153.929 86.1197 154.973 87.0896 155.655C89.0568 157.04 93.8439 155.527 95.5454 152.983C97.5225 150.028 97.1436 147.558 94.3809 145.822C93.1083 145.023 92.6714 143.886 92.5004 142.458C92.1524 139.551 93.399 137.204 94.939 134.952C98.6988 129.453 103.028 124.469 108.568 120.692C110.169 119.601 110.823 118.38 110.805 116.455C110.727 108.245 110.843 100.033 110.734 91.8242C110.696 88.9677 110.127 86.1482 108.071 83.6216C105.22 86.3292 104.184 89.6627 102.551 92.6263C101.914 93.7818 101.5 95.3586 99.7914 95.1261C98.1873 94.9078 97.9414 93.3649 97.5522 92.088C95.9202 86.734 93.3252 81.921 89.4088 77.8941C87.938 76.3817 86.2117 74.9632 83.9116 75.6866C81.6174 76.408 81.7422 78.7549 81.247 80.5742C80.668 82.7013 81.8852 85.7583 79.067 86.6838C76.4779 87.534 75.8281 84.1252 73.4037 82.9736ZM172.435 211.062C178.92 211.064 185.406 211.105 191.891 211.046C194.201 211.025 196.126 211.192 195.871 214.272C195.796 215.19 196.214 216.142 197.201 216.184C202.607 216.412 208.03 216.794 213.656 215.954C211.364 204.724 205.772 196.519 195.659 191.967C185.861 187.557 175.554 186.477 164.879 187.961C154.045 189.467 143.643 192.128 133.727 196.906C128.939 199.213 126.415 202.101 127.402 207.593C127.743 209.49 127.454 211.499 127.456 213.457C127.464 224.009 137.528 230.364 147.132 225.883C151.652 223.774 155.757 220.881 158.433 216.772C161.658 211.82 165.805 210.183 171.338 211.059C171.458 211.078 171.583 211.062 172.435 211.062ZM228.896 104.394C228.702 104.825 228.27 105.307 228.35 105.68C229.784 112.389 232.423 118.263 239.279 121.168C245.27 123.707 248.216 128.326 248.959 134.738C249.426 138.765 248.356 142.666 248.346 146.91C251.245 146.531 253.864 146.147 256.495 145.861C258.066 145.69 258.47 144.775 258.542 143.368C258.716 139.983 257.554 137.155 255.255 134.716C254.268 133.669 253.596 132.385 254.789 131.149C256.163 129.725 257.229 130.994 258.195 131.895C261.781 135.24 262.654 139.604 262.75 144.248C262.775 145.458 262.621 146.657 264.233 147.207C265.773 147.732 266.532 146.896 267.316 145.93C277.878 132.944 284.573 118.6 283.001 101.087C278.137 105.943 272.794 109.745 266.648 112.381C265.441 112.898 264.275 113.374 263.419 112.017C262.616 110.744 263.228 109.691 264.284 108.834C264.664 108.525 265.039 108.208 265.397 107.875C271.934 101.809 275.755 94.3285 276.929 85.5102C277.109 84.1544 277.487 82.6725 276.482 81.2342C273.994 82.5926 272.284 84.4728 270.676 86.4906C267.306 90.7172 264.629 95.3905 261.811 99.9781C261.025 101.258 260.151 103.191 258.168 101.854C256.301 100.594 257.511 99.0521 258.36 97.6997C260.979 93.5286 263.146 89.1719 264.122 84.289C264.867 80.5651 264.383 77.0843 262.448 73.6712C261.687 73.8615 261.09 73.9564 260.531 74.1585C248.818 78.3987 243.743 85.7803 243.63 98.7205C243.591 103.162 243.103 103.654 238.733 103.017C235.487 102.544 232.399 102.938 228.896 104.394ZM142.562 277.819C142.559 263.853 142.519 249.887 142.588 235.922C142.6 233.321 142.024 231.902 139.029 231.652C133.576 231.196 129.423 228.197 126.323 223.812C124.924 221.835 123.349 220.928 120.839 221.016C115.456 221.206 110.061 221.07 104.671 221.08C96.158 221.095 91.4755 225.709 91.4634 234.176C91.441 249.857 91.5463 265.539 91.3913 281.218C91.3593 284.46 92.312 285.427 95.5434 285.39C108.895 285.234 122.249 285.352 135.602 285.324C143.44 285.308 142.462 286.155 142.562 277.819ZM113.819 144.065C110.601 145.835 112.155 148.885 112.05 151.35C111.724 158.97 110.869 162.608 121.995 161.825C125.038 161.611 126.23 163.047 126.015 166.002C125.93 167.169 125.716 168.493 127.162 169.201C134.103 172.6 137.477 178.726 139.413 185.764C140.265 188.864 141.648 189.191 144.426 188.159C154.515 184.411 165.009 182.981 175.745 183.185C176.926 183.208 178.38 183.682 178.979 182.217C179.548 180.823 179.534 179.312 178.393 178.092C175.53 175.029 172.478 172.235 168.271 171.106C166.885 170.733 165.127 170.645 164.775 168.922C164.376 166.975 166.275 166.514 167.485 165.955C171.034 164.318 171.85 161.607 171.027 158.093C170.287 154.937 169.497 151.791 169.429 147.978C163.313 154.737 156.863 159.857 148.515 162.504C135.949 166.489 125.961 158.752 124.079 147.439C123.529 144.134 123.332 140.77 122.932 137.048C120.093 139.762 117.345 141.976 113.819 144.065ZM172.425 106.844C173.405 106.845 174.384 106.849 175.364 106.847C180.653 106.837 180.669 106.837 180.673 101.66C180.686 82.9264 180.705 64.1926 180.682 45.459C180.675 39.6826 177.585 36.5193 172.245 36.6452C167.136 36.7656 164.217 39.9528 164.216 45.4699C164.21 63.469 164.184 81.4681 164.237 99.467C164.262 107.79 163.087 106.731 172.425 106.844ZM236.94 184.323C231.474 176.292 223.463 172.56 214.213 171.109C207.097 169.993 203.743 172.717 203.154 179.948C202.937 182.617 203.176 185.32 203.098 188.004C203.032 190.261 203.876 191.921 205.629 193.37C210.543 197.435 213.877 202.651 216.226 208.536C216.521 209.277 216.502 210.298 217.624 210.396C217.77 210.32 217.912 210.292 217.977 210.206C223.085 203.526 229.049 198.441 238.208 199.141C239.899 199.27 240.085 198.035 240.187 196.697C240.515 192.388 239.22 188.505 236.94 184.323ZM48.8964 156.004C58.8102 156.005 68.725 155.929 78.6371 156.058C81.4448 156.094 82.2283 155.021 82.1359 152.375C81.9181 146.137 75.8506 139.654 69.2714 139.516C58.3846 139.289 47.4897 139.424 36.5983 139.458C33.1195 139.47 30.2332 141.03 27.7279 143.327C24.6648 146.135 25.6384 149.73 26.3653 152.959C27.017 155.855 29.8432 156.012 32.3726 156.015C37.6354 156.022 42.8983 156.009 48.8964 156.004ZM309.411 146.363C304.811 142.155 299.304 142.462 293.806 143.491C286.116 144.93 279.145 148.628 271.194 150.753C273.253 152.776 274.994 154.476 276.065 156.701C277.294 159.252 277.979 161.922 278.474 164.714C279.062 168.03 282.103 169.624 284.131 167.772C292.959 159.706 303.585 158.815 314.733 159.793C320.822 160.327 323.192 158.997 325.863 153.576C327.338 150.582 326.685 149.319 323.255 149.073C320.699 148.889 318.098 148.832 315.558 149.101C313.084 149.364 311.277 148.593 309.411 146.363ZM223.307 248.261C227.258 242.562 231.209 236.864 235.313 230.943C234.547 230.851 234.174 230.704 233.859 230.784C219.469 234.42 207.395 241.899 197.398 252.809C196.648 253.628 195.915 254.524 195.911 255.682C195.881 263.815 195.895 271.948 195.895 280.959C206.482 270.702 214.952 259.874 223.307 248.261ZM130.796 140.087C127.976 139.871 126.894 140.958 127.899 143.791C128.178 144.576 128.104 145.482 128.243 146.324C129.871 156.217 136.188 160.848 146.011 158.818C154.122 157.141 160.29 152.098 165.541 145.94C166.89 144.358 168.693 142.908 169.068 140.082C156.356 140.082 143.912 140.082 130.796 140.087ZM160.036 90.3567C160.036 85.9466 160.11 81.5349 160.021 77.1266C159.809 66.5386 161.927 68.4446 150.857 68.1345C148.106 68.0575 147.255 69.0528 147.297 71.7584C147.434 80.454 147.227 89.1552 147.38 97.8502C147.567 108.513 145.148 106.599 156.835 106.851C159.171 106.902 160.134 105.977 160.064 103.586C159.942 99.4247 160.034 95.257 160.036 90.3567ZM121.915 168.475C122.889 167.146 122.397 166.441 120.914 166.27C119.702 166.131 118.477 166.085 117.257 166.027C111.464 165.748 108.261 162.922 107.567 157.123C107.249 154.466 107.304 151.754 107.34 149.069C107.371 146.835 106.374 146.06 104.216 146.111C102.254 146.157 101.115 146.475 100.919 148.887C100.339 156.023 97.2275 159.11 89.9598 160.098C88.4597 160.302 87.5775 160.824 87.894 162.378C88.645 166.066 88.7493 169.928 90.636 173.325C91.3636 174.635 91.5823 176.755 93.7146 176.358C95.9 175.951 98.2503 175.748 98.9531 172.686C99.692 169.467 101.012 169.306 103.41 171.586C105.314 173.396 106.506 175.967 109.19 177.175C112.934 173.727 116.457 170.089 121.915 168.475ZM207.108 275.399C204.255 278.496 201.402 281.594 198.006 285.28C202.05 285.28 205.307 285.294 208.565 285.272C209.627 285.265 210.367 284.571 211.068 283.884C220.383 274.745 228.527 264.693 234.131 252.843C236.712 247.386 238.079 241.505 237.91 234.563C228.113 249.044 218.601 262.646 207.108 275.399ZM230.982 137.389C233.972 141.74 235.639 146.709 237.295 151.644C242.918 149.751 243.163 149.789 244.19 143.259C245.738 133.418 244.278 127.218 235.949 124.071C230.58 122.041 227.534 117.174 225.669 111.765C225.323 110.761 225.347 109.611 224.177 108.643C221.098 114 220.418 119.676 221.083 125.575C221.234 126.907 222.218 127.925 223.307 128.823C226.151 131.169 228.632 133.869 230.982 137.389ZM110.34 194.461C98.2814 197.679 98.2814 197.679 98.7959 208.631C98.9448 211.801 100.154 212.49 102.986 211.092C105.498 209.853 107.017 207.585 108.835 205.62C109.895 204.474 110.907 202.83 112.77 203.898C114.69 204.999 113.643 206.654 113.129 208.12C112.222 210.709 110.726 213.121 110.567 216.16C111.838 216.25 112.922 216.408 114.003 216.39C125.06 216.21 122.689 217.925 123.575 207.23C124.221 199.434 119.261 195.726 115.007 191.143C113.39 192.342 112.124 193.28 110.34 194.461ZM244.871 152.834C243.44 153.689 241.647 154.046 240.823 155.698C240.901 155.999 240.885 156.314 241.032 156.45C250.022 164.701 260.551 168.655 272.801 167.844C274.533 167.729 274.712 166.676 274.622 165.327C274.193 158.87 269.391 153.055 262.966 151.28C256.954 149.618 251.118 150.418 244.871 152.834ZM185.212 69.1852C184.096 80.2793 185.906 91.3962 184.953 102.497C184.771 104.627 184.39 106.908 188.003 106.913C194.441 106.922 194.796 106.93 194.82 102.758C194.876 92.986 194.891 83.2129 194.84 73.4405C194.831 71.7952 195.466 70.0645 194.46 68.312C191.461 68.2971 188.45 67.6568 185.212 69.1852ZM77.0146 266.23C78.5664 268.721 80.6944 270.437 83.5895 271.125C85.9827 271.693 87.3763 271.05 87.3536 268.293C87.3014 261.937 87.3165 255.581 87.3415 249.226C87.365 243.239 87.3177 237.249 87.5584 231.27C87.6307 229.474 88.4543 227.839 85.6653 227.663C83.2627 227.51 81.6671 227.846 81.7719 230.903C81.9475 236.031 81.8223 241.169 81.8045 246.302C81.7916 250.014 80.3825 253.35 77.0341 254.762C73.7224 256.159 73.7115 258.073 74.6427 260.705C75.2509 262.425 76.0168 264.088 77.0146 266.23ZM96.0779 196.199C98.7752 192.837 102.243 191.245 106.587 191.093C109.851 190.978 112.351 188.002 110.856 186.373C108.25 183.534 106.116 180.196 103.016 177.886C101.474 178.713 100.413 179.829 98.8366 179.877C96.1737 179.959 93.8261 180.922 91.7796 182.596C87.054 186.463 84.5384 194.981 86.3539 200.714C86.6584 201.675 87.2371 202.031 88.1682 202.224C92.051 203.026 93.7391 202.029 94.8534 198.25C95.0221 197.678 95.4249 197.175 96.0779 196.199ZM134.512 184.488C133.163 181.334 131.845 178.174 129.342 175.685C126.684 173.041 123.577 172.516 120.246 173.938C117.767 174.996 115.622 176.661 113.673 178.559C112.216 179.976 111.808 181.233 113.46 182.891C115.616 185.055 117.543 187.445 119.618 189.694C121.6 191.842 123.316 195.006 125.754 195.753C128.311 196.537 130.751 193.174 133.553 192.351C136.412 191.512 136.87 189.895 135.611 187.408C135.227 186.651 135.033 185.799 134.512 184.488ZM98.7314 136.947C98.088 138.794 95.1465 141.118 99.6931 141.924C109.833 143.722 116.535 138.03 122.595 131.183C124.248 129.316 123.755 122.997 122.156 122.882C118.241 122.603 114.133 121.523 110.546 124.343C106.106 127.834 102.123 131.742 98.7314 136.947ZM127.456 130.19C127.483 135.52 127.483 135.53 132.915 135.54C140.603 135.555 148.302 135.315 155.977 135.641C160.9 135.851 159.828 132.72 160.075 129.908C160.371 126.536 159.131 125.302 155.722 125.556C147.442 126.173 139.14 126.099 130.848 125.72C127.979 125.589 127.19 127.04 127.456 130.19ZM127.455 99.1492C127.454 100.37 127.562 101.602 127.431 102.809C127.114 105.738 128.136 107.106 131.286 106.876C134.2 106.663 137.144 106.783 140.072 106.85C142.142 106.897 143.284 106.21 143.249 103.925C143.179 99.2875 143.211 94.6478 143.244 90.0093C143.257 88.2238 142.594 87.2816 140.671 87.3153C137.132 87.3773 133.591 87.3639 130.051 87.3283C128.191 87.3096 127.41 88.1599 127.447 90.0022C127.503 92.8088 127.458 95.6173 127.455 99.1492ZM231.251 216.392C236.152 216.39 241.054 216.379 245.955 216.391C247.716 216.395 249.347 216.193 248.837 213.812C247.926 209.565 246.061 205.972 241.728 204.229C232.903 200.678 222.587 207.928 220.191 216.391C223.694 216.391 227.106 216.391 231.251 216.392ZM132.114 332.764C125.009 339.626 118.065 346.633 111.868 355.045C120.817 350.292 129.065 345.495 137.154 340.425C142.652 336.979 144.373 331.033 141.563 324.329C138.473 327.076 135.479 329.737 132.114 332.764ZM206.132 135.552C207.88 135.231 210.234 136.448 210.943 133.536C212.481 127.217 211.127 125.536 204.774 125.872C202.819 125.976 200.855 125.933 198.895 125.936C194.399 125.944 189.902 125.939 185.292 125.939C185.141 127.956 185.084 129.659 184.872 131.342C184.485 134.436 185.509 135.766 188.887 135.609C194.388 135.355 199.91 135.548 206.132 135.552ZM127.453 77.7571C127.469 83.1239 127.469 83.124 132.865 83.1299C133.6 83.1307 134.335 83.1302 135.07 83.1303C143.266 83.1317 143.29 83.1316 143.236 74.9915C143.184 67.2808 144.156 68.2331 136.337 68.1858C127.468 68.1321 127.467 68.1637 127.453 77.7571ZM206.177 106.834C210.973 106.739 210.98 106.739 211.012 101.874C211.039 97.8542 211.046 93.834 211.064 89.8137C211.068 88.8509 211.286 87.5417 209.983 87.4723C206.951 87.3107 203.898 87.3125 200.865 87.475C199.454 87.5505 199.424 88.9248 199.421 90.0365C199.408 94.6659 199.458 99.2958 199.406 103.925C199.384 105.901 200.17 106.892 202.2 106.822C203.294 106.785 204.392 106.827 206.177 106.834ZM152.801 46.7752C149.567 47.1171 147.562 48.8292 147.39 52.1299C147.225 55.2951 147.376 58.4759 147.351 61.6495C147.338 63.3249 148.143 63.9388 149.784 64.1371C159.545 65.3162 160.039 64.9156 160.035 55.1639C160.035 54.6756 160.037 54.1873 160.035 53.699C160.011 48.4536 158.728 47.1102 152.801 46.7752ZM208.083 166.897C216.33 165.939 223.716 168.64 230.882 172.576C232.399 170.076 233.484 167.754 233.31 165.254C225.291 165.254 217.501 165.069 209.727 165.334C206.026 165.461 202.392 166.7 200.177 170.032C196.659 175.326 192.802 180.281 187.163 184.195C191.265 185.631 194.86 186.889 198.949 188.32C198.138 183.585 198.567 179.488 199.806 175.543C201.05 171.577 203.151 168.191 208.083 166.897ZM120.603 329.255C117.138 335.137 114.214 341.276 111.886 347.757C119.899 338.574 128.59 330.088 137.836 321.998C136.274 320.719 134.859 321.374 133.593 321.123C127.02 319.818 122.829 322.445 120.603 329.255ZM207.465 68.1649C204.831 68.3154 202.155 67.842 199.551 68.4892C199.551 73.4 199.551 78.0956 199.551 83.0351C203.459 83.1012 207.161 83.3601 211.086 82.8408C211.086 78.7319 210.883 74.9535 211.157 71.2101C211.345 68.6496 210.439 67.864 207.465 68.1649ZM165.58 121.277C168.391 121.317 171.202 121.384 174.013 121.39C181.185 121.404 181.366 121.131 180.695 113.985C180.521 112.134 179.766 111.33 177.977 111.342C174.186 111.368 170.395 111.37 166.605 111.407C165.411 111.419 164.249 111.778 164.315 113.193C164.436 115.812 163.436 118.545 165.58 121.277ZM127.452 114.801C127.522 122.177 126.624 121.331 134.217 121.39C135.073 121.397 135.931 121.392 136.788 121.393C143.653 121.398 143.588 121.401 143.277 114.466C143.181 112.347 142.497 111.279 140.267 111.328C136.963 111.4 133.656 111.396 130.351 111.357C128.405 111.335 127.302 112.057 127.452 114.801ZM175.684 125.868C173.973 125.881 172.254 126.009 170.553 125.888C162.927 125.348 164.429 125.687 164.196 132.259C164.113 134.607 164.971 135.628 167.356 135.555C170.409 135.461 173.468 135.559 176.524 135.534C180.773 135.5 180.637 135.449 180.733 129.594C180.789 126.196 179.408 125.17 175.684 125.868ZM173.787 145.767C173.889 148.562 173.509 151.354 174.33 154.142C175.716 158.842 177.167 163.627 172.817 167.939C175.048 169.519 176.887 170.821 179.288 172.522C179.288 162.002 179.294 152.135 179.281 142.269C179.279 140.98 178.647 140.221 177.28 140.155C176.097 140.098 175.017 140.265 174.624 141.564C174.273 142.724 174.068 143.929 173.787 145.767ZM86.4689 222.386C89.385 223.622 95.9826 219.761 96.0368 216.764C96.0453 216.295 96.0109 215.701 95.7425 215.372C94.278 213.577 94.5056 211.456 94.64 209.432C94.8793 205.829 92.3887 206.427 90.2562 206.352C88.0614 206.275 86.0936 206.228 86.2464 209.442C86.4426 213.566 86.3252 217.706 86.4689 222.386ZM152.642 111.343C150.827 111.766 148.088 110.211 147.49 113.218C147.072 115.318 147.076 117.645 147.516 119.739C148.109 122.558 150.77 121.484 152.401 121.284C154.925 120.975 158.528 123.223 159.848 119.709C162.003 113.971 159.806 111.306 153.696 111.336C153.575 111.336 153.453 111.337 152.642 111.343ZM200.829 121.28C202.048 121.319 203.268 121.389 204.488 121.393C211.187 121.417 212.036 120.384 210.99 113.768C210.771 112.379 210.278 111.407 208.767 111.393C206.325 111.371 203.882 111.398 201.442 111.467C200.346 111.498 199.481 112.07 199.518 113.245C199.599 115.858 198.609 118.583 200.829 121.28ZM139.303 55.4165C132.184 55.6953 128.365 58.6586 128.473 64.137C132.235 64.137 136.009 64.0903 139.781 64.1553C141.901 64.1918 143.526 63.7638 143.221 61.1746C142.944 58.8288 144.653 55.2826 139.303 55.4165ZM188.865 111.346C187.695 111.491 186.42 111.048 185.266 112.029C184.802 114.955 184.601 117.939 185.206 120.887C194.03 122.735 195.215 121.772 194.839 113.208C194.819 112.743 194.676 112.283 194.502 111.345C192.812 111.345 191.146 111.345 188.865 111.346ZM193.306 63.9825C196.178 62.0224 194.953 59.0337 194.656 56.6609C194.369 54.3698 191.813 55.7776 190.287 55.448C189.821 55.3473 189.309 55.4764 188.828 55.4204C185.842 55.0731 184.709 56.3071 184.799 59.3668C184.937 64.0593 184.849 64.1492 189.381 64.1436C190.478 64.1423 191.575 64.1027 193.306 63.9825ZM199.43 57.624C199.738 59.759 198.106 62.9335 200.778 63.7729C203.836 64.7333 207.35 64.5877 210.748 63.5732C209.83 59.3714 207.45 56.9681 203.847 55.9069C202.39 55.4776 200.433 54.6434 199.43 57.624Z" fill="white"/>
<path d="M134.611 416.699C135.1 413.994 135.439 411.58 135.881 409.185C136.079 408.11 136.147 406.67 136.849 406.089C139.54 403.861 142.41 406.21 145.222 406.241C146.607 406.255 148.633 406.314 148.857 408.918C149.167 412.511 149.988 416.059 150.705 420.306C152.875 416.803 153.639 413.491 154.642 410.316C155.303 408.224 156.208 407.4 158.525 407.49C167.767 407.85 167.964 407.773 167.647 416.941C167.436 423.052 167.051 429.157 167.174 435.272C167.22 437.572 166.225 438.164 164.059 438.134C157.77 438.047 157.426 437.743 157.948 431.417C158.137 429.116 158.891 426.851 158.24 423.504C156.897 427.473 155.759 430.587 154.798 433.755C154.068 436.164 152.859 437.57 150.084 437.271C147.307 436.972 145.111 436.236 144.712 432.98C144.222 428.986 143.613 425.006 143.021 420.783C142.468 424.591 141.944 428.184 141.424 431.778C141.126 433.84 141.247 436.041 137.896 435.458C131.763 434.391 131.517 434.319 132.198 430.337C132.958 425.889 133.734 421.444 134.611 416.699Z" fill="white"/>
<path d="M251.547 401.998C250.512 404.254 251.606 405.036 253.227 405.903C256.435 407.618 259.502 409.594 262.63 411.464C259.129 417.028 252.774 418.455 247.839 415.216C245.809 413.884 244.214 411.537 241.055 411.803C241.448 414.789 242.82 417.25 243.695 419.861C244.049 420.915 244.631 422.062 243.189 422.685C240.84 423.7 238.465 424.676 236.04 425.487C234.551 425.986 233.93 424.969 233.463 423.638C230.796 416.036 228.103 408.441 225.299 400.889C224.534 398.829 224.963 397.771 227.016 396.945C230.755 395.44 234.376 393.646 238.09 392.074C246.944 388.326 252.068 391.993 251.547 401.998ZM238.049 404.34C238.628 404.178 239.221 404.051 239.785 403.847C240.999 403.407 241.958 402.666 242.091 401.291C242.154 400.649 241.736 400.105 241.098 399.911C239.685 399.48 238.369 400.019 237.3 400.778C235.681 401.925 236.846 403.092 238.049 404.34Z" fill="white"/>
<path d="M278.597 381.253C285.948 390.313 285.134 396.917 275.945 403.803C273.208 405.855 270.352 407.748 267.547 409.709C265.625 411.053 264.155 411.124 262.798 408.733C258.874 401.816 254.796 394.986 250.697 388.17C249.655 386.438 249.87 385.38 251.602 384.276C254.798 382.237 257.838 379.955 260.996 377.856C266.613 374.121 272.035 375.142 278.597 381.253ZM262.515 387.932C264.72 391.389 266.926 394.846 269.096 398.248C273.821 395.821 274.41 394.153 272.123 390.342C271.439 389.201 270.632 388.094 269.702 387.147C266.978 384.375 265.461 384.48 262.515 387.932Z" fill="white"/>
<path d="M196.173 415.25C197.387 404.401 209.066 400.471 216.418 402.456C224.034 404.511 229.34 415.569 226.652 423.514C225.855 425.87 224.509 427.857 222.487 429.422C218.4 432.585 213.598 433.636 208.694 433.476C201.778 433.249 196.679 427.454 196.189 419.983C196.093 418.52 196.164 417.046 196.173 415.25ZM212.366 410.96C209.813 410.54 207.757 411.084 206.661 413.728C205.567 416.366 206.671 421.796 208.783 423.67C210.187 424.914 211.762 425.21 213.557 424.519C215.136 423.91 216.504 423.085 216.636 421.254C216.916 417.344 216.537 413.625 212.366 410.96Z" fill="white"/>
<path d="M76.6562 391.429C76.1733 392.98 76.1989 392.97 76.7075 394.36C78.056 398.043 77.9892 401.539 75.2164 404.621C72.4474 407.7 69.0156 408.443 65.2133 407.098C59.7181 405.154 55.4856 401.593 52.5669 396.529C52.2075 395.905 51.9947 395.175 51.8255 394.468C51.0934 391.406 51.8791 388.655 53.7453 386.212C54.5379 385.174 55.6803 385.548 56.2874 386.323C58.1639 388.718 63.3073 388.916 61.4198 393.903C61.0032 395.003 61.5435 396.135 62.3244 396.937C63.3985 398.041 64.6099 399.634 66.3247 398.555C68.406 397.245 66.7764 395.707 65.9505 394.515C64.4271 392.317 62.4246 390.483 61.2789 387.979C59.7946 384.734 59.4936 381.646 61.8392 378.678C64.2385 375.642 67.4641 374.947 71.0598 375.608C76.3441 376.579 82.1203 382.453 82.5631 387.175C83.0556 392.428 81.4837 393.617 76.6562 391.429ZM71.5087 386.979C71.9937 387.472 72.4674 388.24 73.2424 387.54C73.7923 387.043 73.9972 386.304 73.5285 385.589C72.8095 384.492 72.117 383.297 70.3936 384.035C69.9815 385.143 70.7401 385.838 71.5087 386.979Z" fill="white"/>
<path d="M104.287 427.054C101.931 426.035 99.524 425.786 97.7712 424.113C97.8493 422.072 99.5871 421.224 100.6 419.929C105.346 413.865 110.244 407.92 114.926 401.809C116.182 400.17 117.439 399.608 119.291 400.272C124.715 402.216 126.34 400.369 126.88 408.784C127.322 415.681 128.917 422.505 130.034 429.356C130.23 430.56 130.585 431.739 130.148 433.16C127.747 434.288 125.545 432.499 123.22 432.428C120.153 432.334 119.695 430.192 118.926 427.898C117.971 425.048 110.713 423.861 108.731 426.209C107.444 427.734 106.192 427.903 104.287 427.054ZM116.582 414.589C115.156 416.75 115.736 417.822 118.512 417.934C118.361 416.297 118.223 414.813 118.041 412.843C117.427 413.566 117.139 413.906 116.582 414.589Z" fill="white"/>
<path d="M188.509 414.718C186.496 414.957 184.79 415.088 183.093 415.295C182.037 415.424 181.155 415.879 181.305 417.152C181.435 418.263 182.345 418.463 183.228 418.388C184.805 418.254 186.376 418.029 187.94 417.781C190.719 417.341 192.329 418.284 192.801 421.252C193.261 424.136 191.631 424.915 189.361 425.251C188.276 425.412 187.176 425.493 186.08 425.541C182.12 425.713 181.387 426.581 181.979 430.526C182.069 431.128 182.319 431.705 182.413 432.307C183.163 437.102 182.458 437.939 177.65 438.018C176.793 438.032 175.92 437.953 175.082 438.09C172.104 438.579 171.165 437.19 171.199 434.386C171.29 426.797 171.301 419.204 171.201 411.615C171.166 408.944 172.326 407.878 174.864 407.733C179.737 407.454 184.642 407.709 189.477 406.713C193.153 405.956 192.745 408.94 193.24 411.069C193.825 413.588 192.492 414.405 190.28 414.496C189.792 414.516 189.306 414.592 188.509 414.718Z" fill="white"/>
<path d="M82.5151 413.782C84.6848 409.365 86.5537 405.097 88.8227 401.055C90.2254 398.556 89.5422 397.507 87.2298 396.293C82.5317 393.827 82.7069 393.761 84.994 389.559C86.4024 386.972 87.7008 386.364 90.4185 388.105C95.6767 391.471 101.513 393.783 107.291 396.1C111.503 397.788 108.78 400.155 108.277 402.335C107.682 404.914 106.148 405.286 103.916 404.163C102.621 403.511 101.23 403.049 99.4541 402.327C96.6522 408.781 93.9105 415.096 91.124 421.514C87.7476 421.021 85.2293 419.256 82.5957 417.843C80.6805 416.815 81.8637 415.34 82.5151 413.782Z" fill="white"/>
<path d="M134.606 260.955C131.498 266.465 127.094 269.155 120.957 268.923C117.782 268.802 114.598 268.907 111.419 268.9C102.443 268.88 97.0882 264.372 96.2455 255.473C95.859 251.392 95.7213 247.218 96.6705 243.079C98.1972 236.422 102.577 232.305 109.329 231.975C113.721 231.76 118.139 231.757 122.532 231.951C130.441 232.302 135.666 237.822 135.484 245.77C135.37 250.74 136.394 255.788 134.606 260.955ZM120.441 236.549C118.53 236.457 117.881 237.467 117.889 239.262C117.925 246.837 117.906 254.412 117.907 261.988C117.907 263.272 117.995 264.484 119.675 264.671C125.939 265.37 131.701 261.657 131.486 255.748C131.38 252.82 131.507 249.884 131.495 246.952C131.466 239.502 128.544 236.594 120.441 236.549ZM113.722 248.445C113.72 245.511 113.618 242.574 113.748 239.646C113.857 237.2 112.78 236.517 110.47 236.497C104.452 236.446 100.5 239.989 100.281 246.027C100.175 248.956 100.166 251.897 100.285 254.825C100.525 260.702 104.554 264.53 110.392 264.739C112.673 264.82 113.802 264.118 113.737 261.645C113.629 257.493 113.716 253.335 113.722 248.445Z" fill="white"/>
<path d="M772.943 142.967C771.484 142.443 770.638 143.158 769.989 144.06C769.41 144.866 768.943 145.775 768.56 146.694C767.465 149.313 766.661 152.033 766.383 154.859C766.175 156.973 765.599 158.974 764.937 160.961C763.67 164.765 762.301 168.536 761.072 172.351C760.459 174.253 760.058 176.224 759.566 178.164C759.432 178.694 759.291 179.225 759.195 179.762C758.623 182.99 756.515 184.59 753.461 185.195C753.193 185.248 752.919 185.273 752.647 185.306C747.276 185.96 741.905 185.947 736.538 185.272C735.824 185.182 735.119 184.948 734.434 184.713C732.58 184.078 731.366 182.795 730.77 180.935C730.576 180.328 730.357 179.715 730.273 179.088C729.732 175.076 728.209 171.347 726.995 167.529C725.919 164.141 724.843 160.753 723.812 157.352C723.469 156.221 723.125 155.06 723.023 153.892C722.69 150.076 720.911 146.752 719.556 143.283C719.396 142.872 719.097 142.489 718.786 142.165C717.878 141.216 716.698 141.159 715.574 141.864C714.578 142.488 713.993 143.4 713.716 144.474C713.422 145.616 713.221 146.795 713.112 147.97C712.994 149.239 713.005 150.523 713.003 151.8C712.995 159.561 713.024 167.322 712.978 175.083C712.968 176.623 712.778 178.178 712.505 179.697C712.026 182.365 710.408 184.128 707.793 184.837C706.394 185.216 704.937 185.544 703.498 185.577C699.485 185.67 695.468 185.618 691.452 185.574C690.639 185.566 689.822 185.378 689.018 185.216C686.484 184.704 684.666 183.27 683.958 180.767C683.49 179.115 683.184 177.382 683.086 175.669C682.882 172.122 682.695 168.564 683.24 165.017C683.362 164.219 683.318 163.361 683.173 162.563C682.514 158.951 682.976 155.397 684.245 152.06C685.971 147.521 686.484 142.897 686.366 138.104C686.254 133.541 686.38 128.974 686.33 124.409C686.288 120.544 686.744 116.79 688.211 113.174C689.286 110.524 689.669 107.735 689.643 104.87C689.601 100.123 689.606 95.3745 689.643 90.6269C689.661 88.3493 689.762 86.0704 689.9 83.7965C689.955 82.8948 690.128 81.9799 690.392 81.1151C691.172 78.5628 692.885 76.8446 695.475 76.2484C697.239 75.8424 699.082 75.6234 700.893 75.6078C706.918 75.5561 712.945 75.5915 718.97 75.6903C720.601 75.717 722.249 75.9782 723.848 76.3218C726.686 76.9315 728.743 78.6467 730.147 81.1744C731.762 84.0841 732.752 87.2193 733.114 90.4947C733.368 92.7961 733.944 94.9638 734.779 97.0913C735.683 99.3977 736.311 101.774 736.484 104.247C736.601 105.907 736.993 107.483 737.626 109.01C738.858 111.982 739.524 115.089 739.927 118.272C740.063 119.348 740.365 120.415 740.699 121.451C741.676 124.487 742.714 127.503 743.717 130.53C744.12 131.749 744.545 132.97 745.447 133.91C746.064 134.552 746.734 135.316 747.774 135.056C748.76 134.81 749.219 134.012 749.448 133.071C749.533 132.717 749.681 132.365 749.691 132.008C749.784 128.856 750.822 125.933 751.834 123.002C752.61 120.754 753.157 118.449 753.423 116.088C753.629 114.26 754.143 112.523 754.74 110.796C755.812 107.69 756.783 104.573 757.007 101.246C757.097 99.9129 757.602 98.5727 758.106 97.311C759.095 94.8357 759.762 92.2861 760.08 89.655C760.589 85.4363 762.136 81.5486 763.727 77.6646C765.049 74.4385 767.619 72.9762 770.906 72.5235C771.717 72.4118 772.545 72.3824 773.365 72.3807C779.12 72.3688 784.876 72.3156 790.63 72.4097C792.342 72.4377 794.115 72.6784 795.741 73.1964C800.116 74.5905 802.335 77.8835 802.986 82.2787C803.278 84.2506 803.585 86.2496 803.157 88.2646C803.045 88.7895 803.132 89.3567 803.129 89.9045C803.094 96.9333 803.033 103.962 803.039 110.991C803.04 113.272 803.303 115.537 804.041 117.725C804.536 119.193 804.938 120.693 805.442 122.158C806.134 124.167 806.43 126.227 806.418 128.342C806.378 135.553 806.294 142.765 806.316 149.976C806.331 154.537 806.627 159.076 808.082 163.465C808.654 165.193 809.083 166.969 809.545 168.731C810.544 172.547 810.128 176.304 809.196 180.083C808.435 183.168 806.398 184.679 803.47 185.192C801.857 185.474 800.21 185.661 798.574 185.691C794.558 185.766 790.537 185.814 786.524 185.686C784.818 185.632 783.111 185.179 781.434 184.78C779.712 184.37 778.573 183.151 777.928 181.571C777.205 179.801 776.665 177.967 776.683 176.009C776.738 170.077 776.908 164.141 776.755 158.213C776.654 154.318 776.816 150.355 775.526 146.566C775.048 145.162 774.493 143.828 772.943 142.967Z" fill="white"/>
<path d="M1099.55 150.205C1100.86 153.203 1101.38 156.141 1101.36 159.191C1101.34 161.308 1101.73 163.358 1102.42 165.358C1103.46 168.374 1104.51 171.387 1105.49 174.422C1105.88 175.632 1106.13 176.89 1106.38 178.14C1106.5 178.758 1106.53 179.414 1106.47 180.042C1106.24 182.784 1104.91 184.438 1102.25 185.104C1100.84 185.455 1099.37 185.675 1097.92 185.7C1092.53 185.794 1087.14 185.782 1081.75 185.808C1081.57 185.809 1081.38 185.793 1081.2 185.791C1075.43 185.719 1071.74 183.064 1069.45 176.894C1068.72 174.942 1068.24 172.894 1068.08 170.77C1067.98 169.427 1067.59 168.074 1067.13 166.796C1065.87 163.264 1065.02 159.652 1064.41 155.948C1063.83 152.462 1061.9 149.704 1058.84 147.866C1055.13 145.638 1051.85 147.271 1051.37 151.565C1051.2 153.104 1051.14 154.662 1051.14 156.211C1051.15 162.328 1051.23 168.445 1051.24 174.562C1051.24 175.925 1051.18 177.308 1050.94 178.647C1050.31 182.283 1048.06 184.468 1044.49 185.225C1042.98 185.546 1041.42 185.768 1039.88 185.783C1035.13 185.83 1030.38 185.787 1025.63 185.707C1024.18 185.682 1022.72 185.489 1021.28 185.261C1017.61 184.677 1015.71 182.925 1015.15 179.277C1014.78 176.853 1014.64 174.375 1014.63 171.919C1014.57 162.056 1014.6 152.193 1014.6 142.33C1014.6 124.156 1014.59 105.982 1014.62 87.8087C1014.63 85.9015 1014.8 83.9817 1015.06 82.091C1015.43 79.4163 1017.02 77.6357 1019.53 76.6798C1020.88 76.1608 1022.23 75.7438 1023.77 75.9046C1025.01 76.0348 1026.3 75.6804 1027.57 75.6745C1033.78 75.6457 1039.99 75.6465 1046.21 75.6649C1055.52 75.6926 1064.84 75.8501 1074.16 75.7408C1079 75.6839 1083.33 77.0231 1087.38 79.4931C1088.86 80.3935 1090.29 81.3965 1091.62 82.4983C1094.79 85.121 1097.73 87.982 1100.5 91.0286C1103.18 93.9841 1104.71 97.3912 1104.65 101.439C1104.59 104.998 1104.64 108.561 1104.48 112.116C1104.36 114.899 1103.22 117.438 1101.94 119.852C1100.83 121.94 1099.53 123.942 1098.16 125.874C1097.44 126.899 1096.42 127.724 1095.48 128.583C1094.47 129.506 1093.37 130.33 1092.37 131.262C1091.84 131.753 1091.4 132.349 1091 132.953C1090.04 134.395 1090.03 135.884 1091.02 137.31C1091.75 138.357 1092.5 139.403 1093.35 140.349C1095.94 143.227 1097.99 146.438 1099.55 150.205ZM1065.69 101.034C1064.96 100.222 1064.32 99.3151 1063.49 98.617C1061.58 96.9858 1059.39 95.9504 1056.78 96.0611C1054.45 96.1597 1052.8 97.2871 1051.9 99.3934C1051.52 100.292 1051.28 101.321 1051.27 102.295C1051.21 106.658 1051.23 111.022 1051.29 115.384C1051.31 116.274 1051.57 117.181 1051.83 118.044C1052.44 120.025 1053.77 121.292 1055.81 121.755C1056.42 121.894 1057.07 122.04 1057.69 121.985C1062.15 121.587 1067.1 116.965 1067.73 112.438C1068.26 108.593 1068.05 104.803 1065.69 101.034Z" fill="white"/>
<path d="M1128.54 75.785C1143.13 75.785 1157.47 75.8019 1171.81 75.7667C1173.94 75.7614 1175.98 76.0721 1177.99 76.7329C1181.02 77.7292 1184.05 78.7316 1187.09 79.6982C1189.59 80.495 1191.63 82.0309 1193.48 83.7986C1196.65 86.8218 1199.75 89.923 1202.87 93.0037C1205.69 95.8009 1207.71 99.1519 1209.41 102.711C1209.8 103.532 1210.12 104.398 1210.61 105.162C1214.2 110.864 1215.31 117.103 1214.95 123.752C1214.77 127.197 1214.52 130.646 1214.78 134.125C1214.99 136.834 1214.7 139.588 1214.52 142.314C1214.44 143.389 1214.16 144.475 1213.82 145.504C1212.47 149.566 1211.03 153.599 1209.67 157.659C1208.12 162.276 1205.32 166.044 1201.86 169.386C1200.68 170.528 1199.42 171.592 1198.32 172.809C1194.76 176.774 1190.31 179.377 1185.41 181.297C1180.74 183.131 1175.92 184.55 1171.01 185.531C1169.07 185.918 1167.01 185.793 1165.01 185.797C1154.69 185.82 1144.37 185.81 1134.05 185.808C1131.04 185.807 1128.02 185.952 1125.06 185.232C1124.09 184.996 1123.13 184.677 1122.23 184.271C1120.17 183.35 1118.85 181.76 1118.51 179.526C1118.24 177.64 1118.04 175.723 1118.03 173.819C1117.98 163.413 1118.01 153.008 1118.01 142.602C1118.01 124.711 1118 106.821 1118.01 88.9303C1118.01 86.4684 1118.04 84.0074 1118.62 81.5898C1119.28 78.841 1121.09 77.1114 1123.69 76.339C1125.14 75.9057 1126.74 75.9538 1128.54 75.785ZM1154.65 147.685C1154.65 149.783 1154.58 151.884 1154.68 153.978C1154.74 155.331 1154.95 156.699 1155.28 158.014C1155.94 160.662 1159.25 163.124 1162.62 161.704C1168.47 159.244 1172.76 155.342 1174.78 149.206C1175.41 147.305 1175.95 145.374 1176.61 143.487C1177.62 140.632 1178.32 137.726 1178.33 134.683C1178.33 131.131 1178.24 127.577 1178.34 124.028C1178.43 121.058 1177.91 118.234 1176.93 115.455C1176.14 113.225 1175.38 110.98 1174.71 108.714C1172.42 101.054 1166.08 98.7168 1159.98 99.2374C1157.6 99.4396 1155.95 100.792 1155.19 103.133C1154.7 104.635 1154.65 106.172 1154.65 107.727C1154.65 120.864 1154.65 134 1154.65 147.685Z" fill="white"/>
<path d="M1003.04 137.547C1003.04 139.646 1003.02 141.471 1003.05 143.296C1003.07 145.88 1002.57 148.36 1001.73 150.795C1000.79 153.551 999.884 156.319 998.987 159.09C998.109 161.803 996.783 164.296 995.205 166.648C990.598 173.516 984.548 178.852 977.456 183.021C976.141 183.794 974.611 184.218 973.157 184.735C970.669 185.62 968.146 186.408 965.668 187.318C962.64 188.431 959.537 189.053 956.309 189.015C953.209 188.979 950.103 189.026 947.012 188.842C945.488 188.751 943.961 188.319 942.488 187.87C939.353 186.914 936.224 185.923 933.142 184.81C923.802 181.439 916.833 175.365 912.42 166.424C911.291 164.136 910.161 161.847 908.979 159.586C907.518 156.793 906.598 153.865 906.65 150.69C906.706 147.258 905.916 143.992 904.694 140.829C903.524 137.804 903.017 134.715 903.134 131.468C903.253 128.187 903.191 124.897 903.151 121.612C903.118 118.922 903.619 116.359 904.73 113.911C905.068 113.164 905.343 112.386 905.721 111.662C907.71 107.859 909.445 103.957 910.61 99.8139C911.376 97.0902 913.123 94.9726 915.074 93.0316C917.985 90.1359 920.901 87.2404 923.931 84.4713C925.81 82.7538 927.746 80.9969 929.935 79.7416C933.874 77.482 937.863 75.2515 942.148 73.6729C944.381 72.8501 946.737 72.4471 949.118 72.3951C952.951 72.3113 956.786 72.3079 960.62 72.2979C962.553 72.2928 964.424 72.6867 966.251 73.3026C969.53 74.408 972.811 75.509 976.091 76.6134C978.31 77.3609 980.099 78.7852 981.744 80.3705C985.096 83.5993 988.445 86.8354 991.672 90.1865C993.051 91.6182 994.326 93.2317 995.293 94.9612C997.381 98.6968 999.305 102.529 1001.17 106.383C1002.62 109.373 1003.16 112.545 1003.09 115.918C1002.94 123.033 1003.04 130.154 1003.04 137.547ZM953.331 161.698C956.192 161.326 958.461 159.88 960.266 157.713C962.68 154.813 964.477 151.547 965.721 147.983C966.448 145.9 966.794 143.758 966.774 141.539C966.707 134.149 966.702 126.758 966.627 119.368C966.614 118.099 966.52 116.796 966.208 115.573C965.194 111.596 963.841 107.72 962.21 103.956C960.823 100.753 958.437 99.0568 954.024 99.2679C949.428 99.4879 944.943 103.328 943.753 107.844C942.887 111.131 942.798 114.511 942.859 117.89C942.893 119.802 943.049 121.713 943.055 123.624C943.078 131.655 943.061 139.687 943.069 147.718C943.07 148.72 943.161 149.723 943.158 150.725C943.145 155.264 947.098 160.901 953.331 161.698Z" fill="white"/>
<path d="M659.257 128.533C659.733 129.856 660.164 130.962 660.504 132.095C660.791 133.052 661.123 134.034 661.169 135.017C661.292 137.607 662.032 140.041 662.841 142.463C664.148 146.376 665.019 150.358 665.057 154.509C665.065 155.402 665.259 156.326 665.537 157.18C666.721 160.817 667.989 164.427 669.185 168.061C670.039 170.652 671.037 173.205 671.317 175.959C671.516 177.916 671.182 179.773 670.35 181.522C669.44 183.434 667.929 184.688 665.843 185.192C663.88 185.667 661.883 185.828 659.867 185.813C655.85 185.781 651.833 185.705 647.817 185.741C642.289 185.791 638.712 183.039 636.653 178.103C636.13 176.85 635.854 175.494 635.469 174.184C635.085 172.876 634.801 171.528 634.306 170.263C633.245 167.55 631.247 166.046 628.278 165.892C624.636 165.704 621.005 165.485 617.356 165.964C614.454 166.345 612.42 167.756 611.309 170.426C610.541 172.273 609.899 174.172 609.209 176.05C608.675 177.502 608.151 178.958 607.626 180.413C606.633 183.171 604.559 184.649 601.789 185.209C600.364 185.498 598.904 185.752 597.457 185.769C592.984 185.821 588.51 185.778 584.037 185.708C582.952 185.691 581.868 185.45 580.789 185.277C576.283 184.555 574.666 180.196 575.329 176.889C575.489 176.089 575.734 175.296 576.03 174.534C577.093 171.802 577.744 168.983 578.189 166.084C578.504 164.026 579.088 161.994 579.711 160C580.581 157.219 581.531 154.457 582.573 151.736C583.687 148.826 584.529 145.851 584.929 142.773C585.262 140.219 585.98 137.783 586.816 135.372C587.801 132.532 588.847 129.714 589.841 126.877C590.504 124.984 591.094 123.08 591.234 121.048C591.437 118.107 592.446 115.351 593.41 112.599C594.228 110.265 594.866 107.918 595.008 105.424C595.074 104.262 595.434 103.094 595.807 101.978C597.105 98.0895 598.438 94.2122 599.816 90.3515C600.554 88.2829 601.075 86.1724 601.477 84.0176C601.71 82.7698 602.074 81.5416 602.448 80.3259C602.964 78.6489 604.125 77.4654 605.721 76.8649C607.068 76.3581 608.508 76.0504 609.934 75.8117C611.005 75.6324 612.117 75.6684 613.211 75.667C621.065 75.6568 628.918 75.6325 636.771 75.6844C638.494 75.6958 640.23 75.9022 641.932 76.1832C644.826 76.6608 646.779 78.3657 647.376 81.2455C648.173 85.0981 649.332 88.8282 650.626 92.5317C650.984 93.5545 651.221 94.6576 651.282 95.7369C651.375 97.3983 651.714 98.9856 652.259 100.54C653.526 104.16 654.525 107.84 655.06 111.65C655.248 112.99 655.656 114.314 656.094 115.601C656.978 118.195 657.78 120.788 658.079 123.54C658.255 125.157 658.796 126.733 659.257 128.533ZM629.204 141.545C630.788 141.088 631.625 139.963 631.858 138.402C632.018 137.329 632.225 136.203 632.062 135.155C631.644 132.463 631.319 129.752 630.526 127.117C629.686 124.33 629.047 121.483 628.308 118.665C628.17 118.138 628.032 117.599 627.799 117.111C626.896 115.218 625.277 115.07 623.976 116.772C623.593 117.273 623.284 117.848 623.031 118.427C622.74 119.092 622.481 119.786 622.323 120.493C621.41 124.591 620.015 128.544 618.738 132.533C618.207 134.193 617.863 135.878 617.964 137.638C618.068 139.447 618.904 140.727 620.561 141.487C622.525 142.387 624.542 142.763 626.677 142.232C627.384 142.056 628.094 141.893 629.204 141.545Z" fill="white"/>
<path d="M482.451 228.092C483.985 226.795 485.578 226.346 487.369 226.158C491.655 225.707 495.919 225.635 500.199 226.166C503.384 226.561 505.909 228.107 507.75 230.639C509.03 232.4 510.149 234.309 511.106 236.266C512.554 239.227 514.152 242.065 516.174 244.682C517.397 246.266 518.412 248.009 519.519 249.682C520.725 251.506 521.824 253.413 523.16 255.137C525.075 257.61 526.631 260.266 527.903 263.109C528.912 265.362 530.072 267.535 531.597 269.491C534.134 272.744 536.128 276.325 538.039 279.964C539.098 281.982 540.215 283.973 541.38 285.931C541.788 286.616 542.342 287.268 542.969 287.757C543.926 288.502 544.878 288.335 545.542 287.294C545.968 286.626 546.304 285.813 546.39 285.033C546.559 283.496 546.61 281.934 546.556 280.388C546.482 278.288 546.546 276.215 546.747 274.115C546.971 271.768 546.806 269.381 546.773 267.012C546.756 265.737 546.609 264.464 546.606 263.191C546.59 255.064 546.576 246.937 546.614 238.81C546.622 236.9 546.748 234.981 546.962 233.082C547.387 229.302 549.087 227.272 552.808 226.443C555.29 225.891 557.838 225.673 560.402 226.287C563.575 227.047 565.52 229.003 566.262 232.102C566.577 233.415 566.66 234.81 566.662 236.168C566.687 254.065 566.669 271.962 566.683 289.859C566.69 299.081 566.734 308.302 566.775 317.523C566.784 319.356 566.662 321.166 566.223 322.954C565.31 326.682 563.035 328.879 559.265 329.314C555.81 329.712 552.351 329.617 548.9 328.996C546.371 328.542 544.23 327.415 542.442 325.655C541.147 324.38 539.914 323.01 538.843 321.545C536.905 318.892 535.24 316.071 533.854 313.071C533.058 311.349 531.992 309.722 530.855 308.194C528.56 305.108 526.484 301.916 524.935 298.379C523.576 295.275 521.794 292.409 519.665 289.764C518.171 287.907 517.049 285.837 515.971 283.71C513.952 279.724 511.818 275.784 508.847 272.389C508.251 271.708 507.607 271.035 506.874 270.515C505.877 269.806 504.683 270.192 504.129 271.311C503.931 271.711 503.788 272.16 503.725 272.601C503.328 275.4 503.017 278.196 503.054 281.041C503.155 288.618 503.147 296.196 503.167 303.774C503.181 308.796 503.161 313.818 503.174 318.84C503.179 320.678 503.005 322.485 502.482 324.252C501.903 326.209 500.721 327.623 498.782 328.36C497.242 328.945 495.697 329.462 494.008 329.402C493.283 329.376 492.546 329.445 491.826 329.551C489.314 329.921 486.923 329.42 484.593 328.556C481.949 327.575 480.452 325.622 480.115 322.849C479.896 321.043 479.726 319.217 479.724 317.4C479.7 290.737 479.701 264.074 479.723 237.41C479.724 235.775 479.919 234.137 480.079 232.506C480.245 230.797 481.081 229.405 482.451 228.092Z" fill="white"/>
<path d="M422.872 148.192C420.915 146.051 418.604 144.765 416.21 143.622C412.262 141.737 408.299 139.884 404.335 138.034C399.494 135.775 395.073 132.946 391.459 128.938C389.931 127.245 388.26 125.681 386.644 124.068C383.652 121.08 382.134 117.446 382.121 113.25C382.106 108.782 382.245 104.313 382.336 99.8454C382.391 97.1984 383.402 94.8812 384.883 92.7383C384.935 92.6632 384.986 92.5874 385.044 92.5173C389.562 87.0839 394.504 82.1414 400.743 78.6391C404.677 76.4305 408.909 75.6492 413.356 75.6572C422.308 75.6734 431.26 75.6619 440.213 75.6621C442.221 75.6621 444.232 75.5934 446.235 75.6888C447.501 75.7491 448.788 75.9396 450.01 76.2738C452.75 77.0229 455.573 79.5698 454.97 83.4894C454.299 87.8436 452.579 91.9 450.394 95.7016C449.29 97.6228 447.248 98.4973 445.076 98.6384C441.622 98.8628 438.155 98.9075 434.693 99.0085C434.057 99.027 433.415 98.9829 432.782 98.9153C429.578 98.5733 426.392 98.8899 423.231 99.3059C421.125 99.583 419.21 100.436 417.731 102.097C416.233 103.78 415.955 105.6 416.793 107.671C417.554 109.55 418.96 110.789 420.633 111.8C424.461 114.112 428.406 116.198 432.465 118.08C435.111 119.307 437.694 120.666 440.313 121.95C443.211 123.371 445.775 125.261 448.042 127.538C450.295 129.802 452.521 132.095 454.675 134.452C455.78 135.659 456.763 136.991 457.698 138.338C461.03 143.145 462.68 148.398 462.147 154.327C461.603 160.381 459.252 165.554 455.194 170.024C452.431 173.069 449.535 175.974 446.416 178.652C443.2 181.412 439.629 183.551 435.564 184.857C433.718 185.45 431.856 185.809 429.924 185.81C415.947 185.813 401.97 185.807 387.994 185.818C386.116 185.819 384.39 185.306 382.767 184.424C381.114 183.526 380.234 182.156 380.226 180.213C380.219 178.647 380.352 177.124 380.819 175.622C381.77 172.566 382.333 169.456 382.512 166.237C382.73 162.308 385.438 160.193 389.374 160.553C389.826 160.594 390.295 160.643 390.716 160.798C395.258 162.461 399.984 162.655 404.745 162.575C408.394 162.515 412.047 162.507 415.691 162.333C417.128 162.265 418.583 161.926 419.967 161.506C424.165 160.233 426.82 155.234 424.476 150.642C424.064 149.835 423.495 149.109 422.872 148.192Z" fill="white"/>
<path d="M858.241 176.855C858.228 177.292 858.215 177.474 858.203 177.656C857.842 183.467 853.839 185.258 849.83 185.719C849.739 185.729 849.647 185.726 849.556 185.726C843.987 185.733 838.418 185.776 832.849 185.724C831.308 185.709 829.748 185.517 828.234 185.219C824.668 184.52 823.172 183.429 822.06 179.202C821.717 177.899 821.641 176.494 821.64 175.135C821.618 145.835 821.617 116.535 821.64 87.2354C821.642 85.6011 821.779 83.9491 822.044 82.3367C822.489 79.628 823.976 77.664 826.607 76.6629C827.973 76.1436 829.355 75.9927 830.837 75.8979C838.956 75.3786 847.074 75.7644 855.191 75.6794C863.226 75.5953 871.264 75.6288 879.3 75.6847C881.206 75.698 883.118 75.948 885.011 76.2061C885.899 76.3271 886.77 76.6736 887.613 77.0097C889.437 77.7378 890.617 79.0985 891.018 81.0075C891.316 82.4279 891.479 83.8864 891.576 85.3364C891.668 86.6994 891.548 88.0756 891.61 89.442C891.673 90.8442 891.324 92.1505 890.893 93.4535C889.87 96.5488 887.684 98.2045 884.502 98.6765C881.597 99.1075 878.674 99.1198 875.76 98.9668C872.568 98.7991 869.389 98.6217 866.209 99.1051C865.583 99.2003 864.933 99.1336 864.294 99.1473C861.972 99.1971 860.302 100.316 859.284 102.355C858.882 103.16 858.477 104.064 858.447 104.936C858.347 107.844 858.064 110.75 858.627 113.666C859.255 116.923 861.016 118.664 864.343 118.892C867.159 119.085 869.997 119.05 872.823 118.988C875.659 118.925 878.475 119.006 881.282 119.431C885.35 120.048 887.583 122.144 888.162 126.699C888.531 129.602 888.483 132.512 887.996 135.423C887.372 139.144 885.343 141.316 881.678 141.95C878.506 142.499 875.306 142.424 872.123 142.198C869.463 142.009 866.837 142.127 864.212 142.496C863.587 142.584 862.982 142.821 862.371 143.001C860.318 143.603 859.128 145.044 858.78 147.075C858.474 148.863 858.278 150.691 858.266 152.504C858.213 160.536 858.243 168.568 858.241 176.855Z" fill="white"/>
<path d="M546.689 75.5773C550.247 75.6186 553.546 75.3793 556.789 76.1357C557.321 76.2596 557.854 76.3784 558.381 76.5189C561.257 77.2847 562.818 79.1322 563.261 82.0965C563.668 84.8225 563.705 87.5483 563.68 90.2856C563.669 91.4686 563.593 92.6515 563.601 93.834C563.626 97.9894 561.021 101.173 556.913 101.961C554.471 102.429 552.009 102.389 549.546 102.197C547.262 102.019 544.989 102.004 542.724 102.418C539.242 103.053 537.452 105.242 537.188 108.83C536.576 117.131 536.933 125.439 536.89 133.743C536.841 143.331 536.935 152.919 536.997 162.506C537.018 165.698 537.193 168.889 537.185 172.08C537.18 173.989 537.004 175.903 536.812 177.805C536.722 178.703 536.489 179.605 536.191 180.46C535.289 183.051 533.601 184.851 530.809 185.359C529.558 185.587 528.282 185.781 527.016 185.792C521.716 185.84 516.416 185.852 511.116 185.788C509.577 185.769 508.027 185.533 506.506 185.258C503.379 184.692 501.454 182.771 500.889 179.672C500.498 177.527 500.265 175.338 500.164 173.159C500.063 170.975 500.23 168.78 500.249 166.589C500.329 156.913 500.39 147.237 500.472 137.561C500.529 130.897 500.613 124.233 500.672 117.569C500.68 116.657 500.632 115.744 500.583 114.833C500.481 112.923 500.365 111.013 500.246 109.104C500.211 108.558 500.188 108.006 500.088 107.469C499.67 105.23 498.476 103.675 496.226 102.954C494.54 102.415 492.818 102.357 491.085 102.307C488.167 102.224 485.248 102.14 482.328 102.105C480.923 102.088 479.625 101.682 478.361 101.158C475.552 99.9937 474.033 97.8359 473.905 94.8281C473.761 91.4618 473.736 88.0885 473.75 84.7186C473.754 83.7349 473.983 82.729 474.251 81.7735C475.332 77.9308 477.547 76.0975 481.466 75.8188C483.191 75.6961 484.926 75.67 486.656 75.6689C502.647 75.6582 518.639 75.668 534.63 75.6587C538.559 75.6564 542.487 75.6057 546.689 75.5773Z" fill="white"/>
<path d="M810.49 267.424C810.49 260.393 810.49 253.636 810.49 246.88C810.49 243.414 810.44 239.948 810.516 236.484C810.548 235.035 810.806 233.584 811.039 232.146C811.587 228.769 814.103 226.912 817.155 226.359C818.224 226.165 819.336 226.157 820.428 226.154C826.275 226.135 832.122 226.172 837.968 226.137C844.084 226.101 850.2 226.002 856.316 225.938C863.733 225.86 869.966 228.674 875.295 233.703C875.892 234.265 876.577 234.736 877.156 235.315C878.314 236.475 879.515 237.608 880.54 238.88C882.599 241.435 883.807 244.39 883.862 247.685C883.937 252.242 883.922 256.803 883.819 261.36C883.749 264.473 882.575 267.296 880.566 269.617C878.847 271.605 877.239 273.726 875.096 275.339C874.234 275.988 873.482 276.822 872.807 277.674C871.358 279.501 871.165 281.487 872.389 283.521C872.905 284.378 873.42 285.26 874.08 286.003C876.551 288.782 878.168 292.043 879.422 295.482C880.7 298.989 881.815 302.556 882.975 306.106C883.201 306.795 883.392 307.516 883.451 308.234C883.691 311.167 884.377 313.988 885.405 316.739C885.755 317.677 886.023 318.646 886.308 319.608C886.791 321.238 886.686 322.867 886.161 324.458C885.456 326.597 884.03 328.123 881.839 328.661C878.075 329.583 874.249 329.744 870.433 328.957C867.041 328.258 864.894 326.184 864.345 322.753C863.824 319.49 862.852 316.383 861.807 313.263C861.118 311.204 860.804 309.008 860.447 306.853C859.667 302.138 857.69 297.997 854.591 294.392C851.755 291.092 848.116 289.425 843.768 289.399C842.047 289.389 840.333 289.277 838.609 289.777C836.059 290.516 834.539 291.995 834.045 294.641C833.623 296.904 833.651 299.18 833.631 301.451C833.577 307.568 833.61 313.686 833.614 319.804C833.615 321.268 833.527 322.707 833.08 324.128C832.46 326.097 831.253 327.492 829.309 328.156C827.235 328.864 825.114 329.461 822.893 329.375C820.897 329.298 818.909 329.354 816.909 328.914C813.083 328.072 811.3 325.88 810.657 321.924C810.44 320.584 810.497 319.193 810.496 317.825C810.487 301.116 810.49 284.407 810.49 267.424ZM833.609 260.01C833.657 262.464 833.556 264.909 833.99 267.363C834.464 270.039 835.977 271.581 838.476 272.278C839.345 272.521 840.265 272.712 841.16 272.702C842.975 272.681 844.808 272.638 846.6 272.375C854.909 271.155 860.247 266.392 862.879 258.495C863.504 256.619 863.56 254.731 862.737 252.896C861.992 251.238 861.157 249.621 860.407 247.965C859.312 245.544 857.354 244.157 854.91 243.411C853.786 243.068 852.6 242.895 851.43 242.741C850.168 242.575 848.893 242.5 847.621 242.423C844.792 242.251 841.977 242.48 839.17 242.791C836.801 243.054 834.306 245.211 834.014 247.742C833.868 249.006 833.656 250.27 833.627 251.538C833.567 254.18 833.609 256.824 833.609 260.01Z" fill="white"/>
<path d="M463.666 299.349C463.539 301.537 462.742 303.305 462.171 305.125C461.49 307.297 460.661 309.424 459.984 311.597C459.089 314.471 457.349 316.79 455.298 318.897C452.808 321.456 450.056 323.705 447.034 325.621C443.229 328.035 438.999 329.042 434.572 329.285C431.475 329.456 428.368 329.501 425.265 329.503C420.06 329.507 414.854 329.322 409.652 329.416C402.007 329.555 391.297 323.576 387.512 315.909C385.898 312.64 384.208 309.408 382.577 306.147C380.916 302.825 380.214 299.314 380.225 295.582C380.279 277.688 380.25 259.794 380.25 241.9C380.25 239.712 380.204 237.524 380.267 235.338C380.299 234.252 380.471 233.16 380.678 232.089C381.283 228.971 383.302 227.039 386.274 226.388C390.142 225.541 394.098 225.653 397.961 226.527C401.394 227.304 403.253 229.738 403.573 233.725C403.763 236.082 403.689 238.46 403.724 240.828C403.736 241.65 403.712 242.471 403.712 243.293C403.712 257.718 403.716 272.143 403.708 286.568C403.706 289.214 403.674 291.861 403.616 294.507C403.435 302.639 407.989 307.74 414.593 311.422C417.039 312.786 419.859 312.805 422.604 312.767C423.875 312.75 425.146 312.552 426.413 312.401C428.266 312.181 429.958 311.528 431.392 310.322C433.136 308.856 434.938 307.439 436.536 305.824C438.923 303.412 440.344 300.467 440.437 297.024C440.53 293.56 440.506 290.092 440.517 286.625C440.52 285.622 440.446 284.619 440.445 283.616C440.44 271.838 440.442 260.061 440.442 248.284C440.442 244.36 440.389 240.435 440.467 236.513C440.497 234.973 440.745 233.424 441.023 231.903C441.577 228.874 443.513 227.043 446.445 226.44C450.044 225.7 453.709 225.646 457.335 226.282C460.862 226.9 462.908 229.015 463.573 232.624C463.819 233.958 463.914 235.338 463.916 236.697C463.94 251.669 463.919 266.642 463.94 281.615C463.945 285.081 464.132 288.547 464.108 292.013C464.092 294.38 463.855 296.746 463.666 299.349Z" fill="white"/>
<path d="M762.125 312.728C769.601 312.772 776.815 312.812 784.028 312.865C785.215 312.873 786.417 312.827 787.585 312.995C790.769 313.452 793.337 314.864 794.389 318.122C795.495 321.546 794.694 324.599 792.284 327.24C791.519 328.078 790.517 328.562 789.431 328.767C788.091 329.02 786.724 329.28 785.368 329.283C769.745 329.318 754.121 329.314 738.498 329.287C737.322 329.285 736.14 329.057 734.971 328.87C731.043 328.241 728.957 325.921 728.596 321.831C728.459 320.287 728.406 318.732 728.405 317.182C728.394 290.605 728.395 264.029 728.404 237.452C728.404 236.176 728.474 234.897 728.56 233.623C728.88 228.906 731.962 226.621 736.216 226.184C738.566 225.942 740.948 225.951 743.316 225.946C753.093 225.922 762.87 225.936 772.648 225.935C775.568 225.935 778.488 225.897 781.408 225.947C782.588 225.968 783.764 226.184 784.944 226.302C789.557 226.763 792.022 231.517 791.508 234.952C791.31 236.279 790.816 237.604 790.227 238.819C789.527 240.261 788.255 241.151 786.716 241.689C784.338 242.521 781.854 242.509 779.407 242.559C774.11 242.666 768.807 242.649 763.509 242.561C761.596 242.529 759.692 242.452 757.788 242.667C754.467 243.043 752.716 244.594 752.028 247.914C751.789 249.067 751.68 250.26 751.642 251.439C751.564 253.811 751.561 256.186 751.56 258.56C751.56 259.195 751.612 259.844 751.75 260.462C752.444 263.567 754.366 265.359 757.572 265.784C759.195 265.999 760.844 266.135 762.48 266.129C767.867 266.11 773.253 265.971 778.64 265.956C781.194 265.95 783.736 266.193 786.234 266.819C788.905 267.49 790.482 269.18 791.089 271.813C791.71 274.51 791.85 277.229 791.222 279.945C790.509 283.028 788.475 284.88 785.462 285.483C783.51 285.874 781.476 285.971 779.477 285.991C773.355 286.053 767.233 286.012 761.11 286.015C759.556 286.015 758.027 286.124 756.498 286.512C753.782 287.201 752.359 289.012 751.738 291.599C751.611 292.127 751.563 292.686 751.565 293.23C751.578 297.248 751.577 301.266 751.666 305.281C751.69 306.363 751.91 307.467 752.215 308.509C752.863 310.721 754.35 312.107 756.681 312.375C758.399 312.572 760.135 312.616 762.125 312.728Z" fill="white"/>
<path d="M659.409 328.788C658.487 328.538 657.769 328.374 657.098 328.095C654.909 327.188 653.198 325.744 652.24 323.526C651.806 322.524 651.376 321.516 651.021 320.484C649.476 316.005 647.595 311.642 646.498 307.007C646.186 305.688 645.492 304.464 645.065 303.167C643.782 299.275 642.398 295.412 641.161 291.512C640.168 288.383 639.051 285.307 638.001 282.203C636.454 277.634 635.071 273.011 633.594 268.419C633.036 266.683 632.408 264.97 631.819 263.245C629.434 256.258 627.029 249.278 624.68 242.279C623.81 239.689 623.037 237.065 622.289 234.436C621.046 230.071 623.208 226.741 627.746 226.241C630.366 225.952 633.022 225.925 635.663 225.917C637.298 225.911 638.944 226.084 640.566 226.313C644.085 226.81 646.111 228.89 646.673 232.036C647.219 235.094 648.139 238.052 649.17 240.982C649.866 242.96 650.326 244.994 650.593 247.096C651.148 251.464 652.764 255.557 654.161 259.7C655.529 263.759 656.883 267.826 658.366 271.844C659.573 275.116 660.328 278.476 660.85 281.908C661.013 282.984 661.256 284.062 661.596 285.095C662.364 287.431 663.238 289.733 664.019 292.065C664.315 292.947 664.679 293.754 665.356 294.41C666.706 295.718 668.43 295.636 669.598 294.114C670.034 293.546 670.343 292.859 670.607 292.186C671.073 291 671.427 289.769 671.887 288.581C673.01 285.682 673.968 282.753 674.289 279.629C674.541 277.174 675.286 274.825 676.135 272.503C679.329 263.773 682.168 254.922 685.024 246.077C686.059 242.869 687.237 239.706 688.198 236.477C689.052 233.607 690.653 231.187 692.449 228.886C693.547 227.479 695.177 226.725 696.905 226.393C700.62 225.68 704.368 225.719 708.066 226.472C711.496 227.169 713.461 230.251 712.599 233.687C711.869 236.597 710.905 239.456 709.916 242.292C708.896 245.218 707.838 248.125 707.06 251.129C706.81 252.095 706.433 253.029 706.115 253.978C705.22 256.654 704.354 259.341 703.419 262.003C702.907 263.461 702.324 264.899 701.691 266.31C700.907 268.056 700.01 269.752 699.214 271.493C698.723 272.567 698.28 273.67 697.9 274.788C697.08 277.202 696.318 279.636 695.524 282.059C691.834 293.316 688.144 304.572 684.449 315.826C683.567 318.511 682.617 321.158 681.255 323.66C679.104 327.611 675.76 329.326 671.379 329.307C669.462 329.299 667.543 329.37 665.629 329.289C663.628 329.205 661.633 328.983 659.409 328.788Z" fill="white"/>
<path d="M937.583 312.654C942.106 311.773 945.305 309.467 947.445 305.631C948.982 302.878 949.203 300.09 947.83 297.267C945.431 292.332 941.781 288.646 936.677 286.493C935.839 286.139 934.981 285.818 934.107 285.565C928.093 283.82 922.616 280.974 917.436 277.509C911.932 273.827 907.684 269.02 904.668 263.138C903.584 261.024 902.752 258.806 902.381 256.436C901.79 252.664 902.845 249.201 904.396 245.851C905.863 242.681 907.878 239.863 910.216 237.279C913.492 233.66 917.254 230.686 921.647 228.489C924.733 226.945 927.949 226.143 931.385 226.144C939.331 226.146 947.277 226.096 955.222 226.179C957.212 226.2 959.231 226.49 961.175 226.929C963.733 227.506 965.601 229.072 966.382 231.662C966.837 233.173 966.742 234.752 966.425 236.274C966.014 238.251 965.218 240.091 964.097 241.785C962.614 244.025 960.549 244.835 957.951 244.293C956.613 244.014 955.281 243.691 953.965 243.325C951.035 242.509 948.061 242.228 945.027 242.374C942.568 242.493 940.103 242.485 937.644 242.608C933.453 242.817 930.125 244.661 927.75 248.118C927.191 248.931 926.852 249.899 926.44 250.808C925.605 252.649 925.988 254.358 927.025 255.998C928.769 258.756 931.054 260.946 933.938 262.472C936.033 263.58 938.166 264.615 940.287 265.671C944.365 267.699 948.452 269.71 952.527 271.745C956.401 273.679 959.834 276.193 962.75 279.42C964.157 280.976 965.698 282.411 967.195 283.884C969.601 286.252 971.275 288.974 971.722 292.406C972.099 295.297 972.519 298.165 972.169 301.096C971.942 302.993 971.983 304.924 971.705 306.811C970.936 312.032 968.45 316.434 964.955 320.305C961.111 324.563 956.291 327.235 950.805 328.71C949.237 329.132 947.568 329.354 945.944 329.359C935.716 329.39 925.487 329.361 915.26 329.277C913.54 329.263 911.771 329.073 910.115 328.627C906.502 327.654 904.037 325.414 903.28 321.593C903.227 321.326 903.107 321.042 903.15 320.789C903.699 317.585 904.66 314.56 907.284 312.393C908.754 311.18 910.474 310.614 912.392 310.975C914.093 311.295 915.806 311.602 917.464 312.084C919.064 312.549 920.656 312.79 922.316 312.741C923.225 312.714 924.141 312.776 925.047 312.863C927.6 313.106 930.146 313.087 932.701 312.868C934.245 312.736 935.801 312.75 937.583 312.654Z" fill="white"/>
<path d="M601.319 395.023C601.503 393.998 601.7 393.183 601.693 392.371C601.656 388.177 602.208 384.011 602.081 379.804C601.907 374.056 602.034 368.3 602.043 362.547C602.044 361.909 602.126 361.273 602.159 360.635C602.472 354.678 607.556 352.793 611.374 353.117C612.182 353.186 612.996 353.41 613.765 353.681C616.09 354.502 617.529 356.11 618.114 358.546C618.674 360.878 618.804 363.239 618.809 365.61C618.816 368.713 618.709 371.816 618.706 374.918C618.694 390.35 618.7 405.782 618.702 421.214C618.702 423.041 618.628 424.847 618.206 426.648C617.316 430.446 614.784 432.369 611.394 432.821C609.053 433.134 606.68 433.059 604.31 432.597C601.466 432.042 599.207 430.628 597.462 428.41C596.396 427.055 595.531 425.539 594.604 424.077C594.313 423.618 594.076 423.115 593.874 422.608C591.219 415.957 587.4 409.968 583.459 404.031C581.698 401.379 580.21 398.538 578.705 395.725C577.538 393.544 576.331 391.418 574.604 389.614C573.977 388.959 573.513 388.152 572.936 387.447C572.593 387.028 572.2 386.638 571.779 386.298C571.507 386.079 571.143 385.975 570.741 385.78C569.306 387.059 569.018 388.774 568.824 390.463C568.637 392.09 568.609 393.742 568.606 395.382C568.587 404.422 568.594 413.463 568.598 422.503C568.6 424.622 568.281 426.668 567.45 428.64C566.597 430.666 565.07 431.833 562.99 432.311C561.199 432.722 559.397 432.844 557.571 432.404C555.586 431.927 554.098 430.893 553.2 429.019C552.315 427.173 551.932 425.207 551.828 423.2C551.71 420.922 551.715 418.637 551.72 416.355C551.736 408.23 551.786 400.104 551.802 391.978C551.817 384.582 551.805 377.185 551.805 369.789C551.805 367.326 551.74 364.86 551.831 362.4C551.882 361.043 552.048 359.654 552.422 358.355C553.217 355.59 555.05 353.794 557.957 353.336C559.572 353.081 561.213 352.937 562.847 352.879C567.565 352.712 571.317 354.805 574.428 358.14C576.807 360.69 578.719 363.593 580.089 366.81C581.025 369.006 582.196 371.053 583.53 373.022C584.811 374.91 586.046 376.828 587.328 378.715C588.819 380.908 590.086 383.215 591.209 385.62C591.936 387.177 592.883 388.646 593.852 390.072C594.979 391.731 596.234 393.303 597.444 394.906C597.718 395.268 598.002 395.634 598.335 395.939C599.55 397.054 600.191 396.89 601.319 395.023Z" fill="white"/>
<path d="M1195.99 248.291C1194.68 250.497 1193.32 252.464 1192.32 254.597C1190.72 258.001 1188.92 261.256 1186.58 264.205C1184.76 266.508 1183.26 269.002 1182.15 271.725C1181.07 274.364 1179.38 276.643 1177.85 279.022C1176.82 280.629 1175.85 282.29 1175.03 284.012C1173.83 286.532 1173.49 289.238 1173.71 292.019C1173.79 293.017 1173.86 294.02 1173.87 295.021C1173.88 302.783 1173.89 310.545 1173.85 318.307C1173.85 319.85 1173.69 321.406 1173.45 322.931C1173.03 325.573 1171.56 327.416 1169 328.341C1167.36 328.933 1165.7 329.444 1163.94 329.382C1161.58 329.298 1159.19 329.544 1156.88 328.792C1156.62 328.707 1156.36 328.631 1156.09 328.554C1153.04 327.657 1151.36 325.58 1151.01 322.457C1150.81 320.556 1150.65 318.639 1150.64 316.728C1150.59 311.158 1150.62 305.588 1150.62 300.017C1150.62 299.288 1150.63 298.556 1150.7 297.831C1151.09 293.401 1150.61 289.099 1148.85 284.982C1148.31 283.725 1147.78 282.463 1147.17 281.238C1145.19 277.233 1143.21 273.229 1141.16 269.258C1140.41 267.804 1139.64 266.314 1138.61 265.06C1135.22 260.927 1132.83 256.224 1130.52 251.453C1128.38 247.022 1126.13 242.644 1123.99 238.211C1123.28 236.743 1122.56 235.224 1122.21 233.648C1121.35 229.784 1123.19 227.434 1127.01 226.392C1127.62 226.226 1128.28 226.161 1128.91 226.165C1131.56 226.183 1134.21 226.181 1136.85 226.306C1140.13 226.461 1142.79 227.911 1144.86 230.455C1147.09 233.181 1148.74 236.247 1149.66 239.605C1150.92 244.214 1152.78 248.545 1154.99 252.756C1156.3 255.258 1157.51 257.816 1158.8 260.33C1159.43 261.549 1160.12 262.729 1161.33 263.507C1162.63 264.349 1163.98 264.403 1165.09 263.334C1165.99 262.46 1166.85 261.443 1167.42 260.33C1170.35 254.561 1173.21 248.757 1176.02 242.925C1176.64 241.627 1176.96 240.173 1177.36 238.776C1178.18 235.964 1179.15 233.221 1180.81 230.772C1181.69 229.47 1182.72 228.282 1184.12 227.558C1185.15 227.023 1186.3 226.43 1187.42 226.389C1191.43 226.243 1195.45 226.312 1199.46 226.325C1199.91 226.326 1200.37 226.455 1200.8 226.579C1203.65 227.383 1205.01 229.417 1204.59 232.347C1204.46 233.238 1204.15 234.117 1203.82 234.96C1201.92 239.742 1199.33 244.126 1195.99 248.291Z" fill="white"/>
<path d="M401.658 433.04C397.46 433.034 393.53 433.08 389.61 432.9C388.092 432.831 386.567 432.351 385.101 431.883C382.717 431.123 381.374 429.356 380.851 426.953C380.304 424.442 380.217 421.888 380.226 419.329C380.256 410.382 380.311 401.435 380.311 392.488C380.311 383.358 380.256 374.228 380.226 365.098C380.22 363.089 380.286 361.09 380.762 359.118C381.599 355.643 384.049 353.438 387.648 353.081C389.099 352.937 390.564 352.879 392.023 352.872C397.14 352.848 402.256 352.863 407.372 352.863C409.925 352.862 412.479 352.899 415.032 352.849C418.786 352.776 421.996 354.188 424.84 356.472C427.409 358.534 429.581 361.006 431.543 363.648C432.761 365.288 433.408 367.168 433.718 369.195C434.621 375.111 433.369 380.42 429.42 385.011C429.004 385.495 428.627 386.012 428.244 386.522C427.019 388.155 427.022 389.884 427.827 391.688C428.702 393.649 430.082 395.232 431.658 396.63C433.044 397.859 434.132 399.302 435.135 400.831C437.026 403.713 437.632 406.825 437.003 410.236C436.136 414.944 433.797 418.93 431.053 422.72C430.533 423.438 429.778 424.061 429.004 424.507C425.057 426.783 421.189 429.201 416.966 430.978C413.807 432.307 410.587 433.12 407.135 432.976C405.403 432.903 403.665 432.989 401.658 433.04ZM415.491 403.045C413.017 398.706 409.254 396.604 404.285 396.509C399.88 396.426 397.555 399.221 397.282 402.593C397.26 402.865 397.228 403.138 397.23 403.41C397.254 406.322 397.278 409.234 397.318 412.146C397.326 412.689 397.394 413.234 397.46 413.775C397.83 416.786 399.648 418.474 402.496 419.134C404.017 419.487 405.581 419.559 407.096 419.111C409.021 418.541 410.843 417.745 412.465 416.509C416.427 413.49 417.778 409.098 416.129 404.405C416.009 404.063 415.856 403.732 415.491 403.045ZM413.26 367.788C409.679 365.95 405.885 365.877 402.067 366.642C399.88 367.081 398.345 368.433 397.716 370.713C397.121 372.873 397.055 375.048 397.399 377.224C397.879 380.256 399.473 381.818 402.515 382.527C406.769 383.518 412.696 381.326 415.337 376.211C416.966 373.056 416.481 369.822 413.26 367.788Z" fill="white"/>
<path d="M931.218 431.98C929.79 432.438 928.559 432.737 927.261 432.587C927.08 432.566 926.889 432.535 926.715 432.569C922.64 433.372 918.534 432.932 914.438 432.882C912.704 432.861 910.969 432.887 909.235 432.876C907.31 432.863 905.422 432.601 903.576 432.036C900.753 431.171 899.224 429.234 898.687 426.375C898.093 423.209 898.211 420.019 898.228 416.83C898.234 415.646 898.325 414.462 898.326 413.278C898.333 399.774 898.337 386.271 898.325 372.768C898.323 370.215 898.19 367.661 898.234 365.109C898.263 363.385 898.473 361.661 898.645 359.941C899.131 355.067 902.759 353.574 905.967 353.1C907.222 352.915 908.515 352.96 909.792 352.953C916.637 352.914 923.483 352.95 930.327 352.836C933.481 352.784 936.481 353.327 939.44 354.343C941.936 355.2 944.48 355.92 946.971 356.79C948.079 357.176 949.195 357.655 950.164 358.306C956.896 362.824 961.698 368.812 964.12 376.644C964.888 379.13 965.103 381.637 965.091 384.197C965.075 387.75 964.899 391.309 965.05 394.855C965.263 399.853 963.898 404.398 961.609 408.741C960.249 411.32 958.854 413.879 957.483 416.452C956.222 418.819 954.562 420.85 952.454 422.514C948.778 425.418 944.844 427.802 940.258 429.056C937.277 429.872 934.368 430.954 931.218 431.98ZM914.782 389.901C914.782 396.66 914.761 403.418 914.799 410.176C914.807 411.629 914.938 413.096 915.176 414.529C915.64 417.322 917.565 419.118 920.367 419.34C923.78 419.611 927.103 419.267 930.215 417.641C934.125 415.598 937.749 413.184 940.804 409.964C943.621 406.996 945.273 403.55 945.276 399.402C945.28 393.928 945.276 388.454 945.268 382.981C945.268 382.617 945.215 382.252 945.179 381.889C944.537 375.339 938.403 368.192 932.015 366.55C931.661 366.459 931.311 366.339 930.951 366.29C927.399 365.811 923.83 365.852 920.301 366.342C917.371 366.748 915.6 368.635 915.11 371.589C914.828 373.289 914.696 375.032 914.685 376.756C914.659 380.955 914.743 385.154 914.782 389.901Z" fill="white"/>
<path d="M1031.23 226.941C1033.17 226.115 1035 226.152 1036.83 226.149C1043.95 226.139 1051.08 226.145 1058.21 226.145C1068.99 226.145 1079.77 226.141 1090.55 226.148C1092.82 226.149 1095.1 225.853 1097.37 226.145C1097.91 226.215 1098.46 226.232 1099.01 226.3C1103.28 226.829 1105.75 229.268 1106.35 233.521C1106.76 236.45 1104.92 240.021 1102.23 241.232C1101.08 241.749 1099.82 242.19 1098.58 242.284C1095.49 242.518 1092.4 242.797 1089.29 242.435C1086.92 242.159 1084.54 242.447 1082.2 242.813C1078.87 243.333 1077.01 245.268 1076.55 248.586C1076.41 249.576 1076.4 250.589 1076.4 251.592C1076.39 269.948 1076.39 288.304 1076.4 306.66C1076.41 309.396 1076.59 312.133 1076.58 314.869C1076.56 317.508 1076.7 320.179 1075.94 322.753C1075.61 323.878 1075.21 325.025 1074.6 326.018C1073.61 327.64 1072.1 328.566 1070.17 328.918C1066.52 329.586 1062.89 329.401 1059.28 328.752C1056.74 328.296 1054.89 326.931 1054.25 324.334C1053.86 322.748 1053.48 321.123 1053.4 319.502C1053.27 316.498 1053.36 313.484 1053.36 310.475C1053.36 293.58 1053.37 276.685 1053.36 259.791C1053.36 256.507 1053.3 253.224 1053.23 249.941C1053.22 249.221 1053.08 248.494 1052.93 247.788C1052.26 244.778 1050.44 243.072 1047.33 242.621C1044.51 242.211 1041.68 242.295 1038.87 242.509C1036.84 242.663 1034.84 242.482 1032.88 242.123C1030.28 241.648 1028.47 240.12 1027.53 237.566C1026.67 235.244 1026.53 232.991 1027.53 230.665C1028.25 228.983 1029.33 227.728 1031.23 226.941Z" fill="white"/>
<path d="M1181.44 379.962C1182.44 377.723 1182.62 375.537 1182.64 373.346C1182.67 370.426 1182.56 367.505 1182.56 364.585C1182.55 363.035 1182.5 361.462 1182.74 359.94C1183.2 356.934 1184.76 354.526 1187.77 353.695C1189.83 353.124 1192.05 352.759 1194.26 353.186C1194.89 353.308 1195.53 353.354 1196.15 353.501C1199.17 354.215 1201.23 355.977 1201.84 359.091C1202.16 360.694 1202.36 362.343 1202.38 363.974C1202.42 367.624 1202.3 371.276 1202.29 374.926C1202.27 380.406 1202.29 385.885 1202.29 391.364C1202.29 397.574 1202.27 403.784 1202.29 409.994C1202.3 413.736 1202.43 417.479 1202.38 421.22C1202.35 423.035 1202.12 424.857 1201.84 426.655C1201.48 429.002 1200.1 430.634 1197.93 431.566C1194.62 432.991 1191.2 433.153 1187.76 432.102C1185.2 431.318 1183.52 429.623 1183.08 426.922C1182.81 425.309 1182.59 423.671 1182.57 422.04C1182.51 419.03 1182.62 416.018 1182.65 413.006C1182.66 412.369 1182.7 411.708 1182.56 411.096C1182.14 409.292 1182.23 407.468 1182.2 405.644C1182.14 402.906 1180.96 401.171 1178.41 400.239C1177.39 399.867 1176.29 399.517 1175.23 399.496C1171.03 399.413 1166.83 399.441 1162.64 399.482C1161.15 399.496 1159.76 400.045 1158.49 400.763C1156.78 401.724 1155.86 403.256 1155.71 405.215C1155.42 408.939 1155.04 412.656 1155.43 416.406C1155.58 417.851 1155.52 419.329 1155.44 420.785C1155.38 421.775 1155.21 422.784 1154.91 423.731C1153.87 427.081 1151.06 429.159 1147.58 429.248C1145.99 429.288 1144.49 428.925 1143.07 428.267C1141.48 427.534 1140.52 426.223 1139.97 424.612C1139.15 422.16 1139.03 419.6 1139.02 417.048C1138.98 410.473 1139.01 403.898 1139.01 397.323C1139.01 386.638 1138.99 375.953 1139.03 365.269C1139.03 363.451 1139.17 361.616 1139.46 359.822C1140.16 355.423 1142.7 353.339 1147.17 353.272C1151.33 353.208 1154.84 356.025 1155.33 360.188C1155.63 362.821 1155.51 365.452 1155.42 368.087C1155.36 370.001 1155.25 371.917 1155.27 373.831C1155.29 375.009 1155.44 376.194 1155.63 377.36C1156.12 380.335 1157.96 381.951 1160.85 382.588C1162.93 383.044 1165.03 383.039 1167.12 383.07C1169.77 383.108 1172.42 383.089 1175.07 382.983C1177.51 382.884 1179.75 382.203 1181.44 379.962Z" fill="white"/>
<path d="M693.715 431.906C691.238 432.815 688.901 433.05 686.503 432.938C684.953 432.865 683.399 432.9 681.847 432.876C677.99 432.817 674.227 432.27 670.606 430.851C669.168 430.287 667.668 429.865 666.173 429.469C663.371 428.728 660.93 427.348 658.878 425.337C656.336 422.845 653.825 420.319 651.393 417.72C649.457 415.651 647.815 413.344 646.474 410.832C644.731 407.568 643.581 404.136 643.587 400.399C643.596 395.289 643.694 390.179 643.678 385.07C643.667 381.303 644.854 377.899 646.63 374.664C648.979 370.386 652.058 366.667 655.6 363.333C658.195 360.889 660.994 358.694 663.983 356.743C667.911 354.178 672.2 352.91 676.901 352.938C683.294 352.976 689.688 352.913 696.08 352.971C697.711 352.986 699.353 353.215 700.964 353.493C702.526 353.763 703.867 354.538 704.913 355.773C707.192 358.465 706.741 362.604 703.527 364.542C701.844 365.557 699.99 366.037 698.053 366.07C694.954 366.122 691.853 366.063 688.753 366.055C685.837 366.047 682.91 365.814 680.033 366.548C675.824 367.623 671.947 369.358 668.629 372.217C665.901 374.568 664.067 377.409 663.792 381.095C663.697 382.367 663.554 383.639 663.545 384.912C663.514 389.293 663.505 393.675 663.549 398.056C663.563 399.418 663.774 400.777 663.892 402.137C664.073 404.206 664.988 405.98 666.145 407.642C667.721 409.905 669.599 411.902 671.856 413.482C672.887 414.204 674.047 414.842 675.243 415.204C678.85 416.295 682.558 416.745 686.332 416.435C687.055 416.376 687.779 416.244 688.485 416.072C691.424 415.356 693.198 413.406 693.673 410.435C693.995 408.423 693.839 406.394 693.438 404.447C693.016 402.4 691.686 400.849 689.675 400.057C688.406 399.557 687.102 399.137 685.792 398.751C683.487 398.071 682.108 396.544 681.383 394.29C681.089 393.375 681.066 392.549 681.336 391.627C682.069 389.129 683.656 387.525 686.169 386.912C687.314 386.633 688.504 386.427 689.678 386.398C693.327 386.308 696.979 386.272 700.629 386.316C701.984 386.332 703.376 386.477 704.681 386.825C707.447 387.564 709.261 389.353 709.916 392.202C710.018 392.646 710.123 393.098 710.143 393.549C710.268 396.276 710.428 399.003 710.466 401.731C710.534 406.659 710.573 411.587 710.527 416.515C710.506 418.695 710.407 420.899 710.059 423.046C709.525 426.329 707.536 428.453 704.234 429.149C700.754 429.882 697.283 430.626 693.715 431.906Z" fill="white"/>
<path d="M866.838 398.347C867.182 401.586 867.994 404.462 868.99 407.315C870.34 411.183 871.545 415.101 872.781 419.008C873.054 419.872 873.278 420.768 873.382 421.667C873.806 425.318 871.33 428.607 867.682 429.065C863.213 429.627 859.556 428.091 857.179 424.204C856.097 422.436 855.419 420.417 854.614 418.488C854.265 417.651 854.043 416.759 853.79 415.884C852.716 412.182 849.98 410.37 846.419 409.837C842.905 409.311 839.347 409.263 835.801 409.881C832.906 410.386 830.678 411.765 829.407 414.448C828.63 416.09 827.996 417.801 827.311 419.486C826.763 420.834 826.248 422.196 825.696 423.543C824.737 425.878 822.964 427.364 820.669 428.291C818.595 429.128 816.45 429.45 814.235 429.076C811.657 428.64 810.183 427.139 809.853 424.542C809.739 423.648 809.762 422.712 809.88 421.816C810.607 416.285 812.169 410.986 813.958 405.698C818.306 392.846 822.97 380.096 826.799 367.07C827.673 364.095 828.923 361.264 830.346 358.498C832.214 354.87 835.233 353.254 839.175 353.071C841.817 352.947 844.441 352.853 847.085 353.316C850.254 353.871 852.434 355.416 853.483 358.522C855.173 363.525 856.93 368.505 858.646 373.499C861.072 380.561 863.497 387.624 865.895 394.696C866.273 395.811 866.508 396.975 866.838 398.347ZM837.636 388.258C837.49 389.246 837.289 390.229 837.21 391.221C837.08 392.85 837.905 394.005 839.219 394.852C840.826 395.89 843.027 395.295 843.877 393.589C844.077 393.186 844.214 392.744 844.329 392.306C845.001 389.746 844.713 387.232 843.821 384.788C843.58 384.129 843.119 383.514 842.639 382.988C842.002 382.29 841.097 382.237 840.452 382.882C839.817 383.517 839.217 384.235 838.792 385.021C838.321 385.893 838.065 386.882 837.636 388.258Z" fill="white"/>
<path d="M1024.5 416.516C1026.88 416.515 1028.98 416.456 1031.08 416.535C1032.16 416.576 1033.26 416.783 1034.31 417.052C1036.71 417.664 1038.33 419.221 1039.05 421.557C1039.81 423.99 1039.69 426.449 1038.53 428.749C1037.58 430.624 1036.07 431.87 1033.97 432.371C1031.72 432.905 1029.44 432.944 1027.16 432.951C1019.67 432.975 1012.18 432.976 1004.69 432.95C1002.59 432.943 1000.48 432.932 998.395 432.7C996.965 432.54 995.536 432.107 994.184 431.595C992.375 430.91 991.2 429.497 990.651 427.657C990.314 426.528 990.037 425.346 989.979 424.176C989.856 421.719 989.887 419.253 989.87 416.791C989.864 415.879 989.914 414.966 989.914 414.053C989.917 399.532 989.916 385.011 989.916 370.49C989.916 367.755 989.89 365.019 989.936 362.285C989.952 361.38 990.135 360.475 990.28 359.576C990.952 355.411 994.062 353.388 998.273 353.103C1001.18 352.907 1004.11 352.972 1007.03 352.952C1013.25 352.911 1019.46 352.878 1025.67 352.87C1028.23 352.867 1030.78 352.823 1033.3 353.411C1034.58 353.707 1035.72 354.219 1036.76 354.993C1039.87 357.321 1039.95 361.421 1036.92 363.902C1035.92 364.729 1034.75 365.279 1033.48 365.495C1031.87 365.77 1030.23 366.03 1028.6 366.074C1025.77 366.151 1022.94 366.043 1020.11 366.039C1018.74 366.037 1017.36 366.006 1016 366.146C1012.75 366.481 1011.12 367.937 1010.27 371.11C1009.66 373.434 1009.39 375.751 1010.2 378.11C1011.23 381.114 1013.05 382.685 1016.19 382.848C1019.47 383.019 1022.76 382.971 1026.04 383.109C1027.59 383.174 1029.14 383.359 1030.65 383.657C1032.43 384.007 1033.77 385.043 1034.77 386.588C1036.94 389.955 1035.2 393.59 1032.35 394.87C1030.31 395.788 1028.14 395.981 1025.94 396.028C1023.29 396.085 1020.64 396.067 1018 396.186C1016.82 396.239 1015.64 396.462 1014.5 396.76C1011.84 397.455 1010.24 399.255 1009.88 401.941C1009.48 405.024 1009.52 408.125 1010.15 411.201C1010.72 414.026 1012.4 415.796 1015.22 416.218C1017.29 416.527 1019.4 416.531 1021.5 416.616C1022.41 416.653 1023.32 416.554 1024.5 416.516Z" fill="white"/>
<path d="M513.249 377.456C514.591 381.363 515.963 385.037 517.091 388.785C517.771 391.042 518.056 393.416 518.549 395.731C518.775 396.796 519.01 397.866 519.349 398.899C521.681 405.996 524.027 413.089 526.406 420.171C526.791 421.319 526.978 422.463 526.934 423.662C526.842 426.184 525.344 428.216 522.973 429.012C519.108 430.309 513.23 428.72 510.719 425.535C509.892 424.488 509.364 423.173 508.853 421.918C508.202 420.318 507.771 418.628 507.122 417.027C506.68 415.939 506.126 414.866 505.449 413.909C503.67 411.393 501.299 409.932 498.102 409.834C495.646 409.759 493.195 409.536 490.746 409.857C489.664 409.999 488.581 410.175 487.524 410.438C484.971 411.075 483.121 412.564 482.172 415.073C481.56 416.692 480.955 418.314 480.325 419.926C479.794 421.283 479.329 422.678 478.663 423.966C476.527 428.098 471.452 430.323 467.071 429.135C463.753 428.235 462.019 425.983 462.02 422.574C462.021 420.631 462.531 418.793 463.151 416.972C464.941 411.715 466.837 406.49 468.469 401.184C471.149 392.471 474.267 383.909 477.116 375.256C478.625 370.671 480.17 366.102 481.816 361.566C482.126 360.71 482.38 359.828 482.76 359.004C484.246 355.78 486.769 353.989 490.28 353.361C493.477 352.79 496.623 352.807 499.785 353.456C502.926 354.101 505.373 355.729 506.68 358.708C507.665 360.954 508.478 363.28 509.28 365.601C510.616 369.473 511.881 373.369 513.249 377.456ZM501.091 388.482C500.383 384.813 498.332 381.779 496.417 378.687C496.138 378.236 495.702 377.858 495.276 377.527C494.25 376.731 492.969 376.807 492.054 377.717C491.739 378.031 491.471 378.423 491.28 378.825C489.834 381.879 488.551 384.986 488.29 388.412C487.913 393.354 490.527 395.396 494 395.941C497.921 396.555 501.006 394.024 501.162 390.039C501.176 389.676 501.147 389.311 501.091 388.482Z" fill="white"/>
<path d="M582.588 298.66C582.588 295.829 582.551 293.273 582.6 290.717C582.635 288.898 582.804 287.082 582.879 285.263C582.924 284.17 583.011 283.062 582.896 281.981C582.227 275.705 582.383 269.41 582.399 263.119C582.402 261.668 582.782 260.217 582.783 258.766C582.787 254.392 582.702 250.019 582.631 245.645C582.564 241.54 582.449 237.434 583.004 233.348C583.053 232.988 583.12 232.628 583.201 232.273C584.02 228.676 586.069 226.689 589.721 226.257C592.891 225.882 596.088 225.671 599.261 226.319C600.062 226.482 600.867 226.675 601.63 226.962C603.057 227.498 604.142 228.473 604.725 229.89C605.139 230.895 605.592 231.941 605.707 233.004C606.021 235.898 606.29 238.808 606.341 241.716C606.392 244.627 606.068 247.543 606.064 250.456C606.037 271.18 606.053 291.903 606.046 312.627C606.045 315.268 606.032 317.912 605.939 320.551C605.901 321.632 605.682 322.714 605.465 323.78C605.009 326.024 603.631 327.502 601.504 328.289C599.7 328.956 597.869 329.461 595.908 329.399C593.447 329.32 590.975 329.459 588.561 328.801C586.538 328.249 584.788 327.239 583.892 325.309C583.328 324.096 583.018 322.709 582.875 321.369C582.654 319.291 582.613 317.187 582.599 315.093C582.565 309.706 582.588 304.32 582.588 298.66Z" fill="white"/>
<path d="M1010.93 266.328C1010.93 278.835 1010.91 291.067 1010.94 303.299C1010.96 306.67 1011.25 310.041 1011.23 313.411C1011.22 316.322 1010.96 319.234 1010.77 322.142C1010.72 322.769 1010.49 323.387 1010.32 324.002C1009.59 326.638 1007.85 328.164 1005.18 328.698C1001.56 329.421 997.948 329.542 994.308 328.805C990.736 328.082 988.899 326.282 988.276 322.685C988.167 322.057 988.061 321.424 988.026 320.79C987.957 319.515 987.903 318.238 987.903 316.961C987.896 290.58 987.888 264.198 987.916 237.817C987.918 235.91 988.182 234.003 988.34 232.098C988.532 229.794 991.052 226.921 994.003 226.485C997.544 225.962 1001.11 225.907 1004.64 226.475C1007.84 226.989 1009.96 228.823 1010.48 232.136C1010.73 233.66 1010.9 235.212 1010.91 236.752C1010.95 246.519 1010.93 256.287 1010.93 266.328Z" fill="white"/>
<path d="M1088.92 366.295C1087.18 366.73 1085.71 367.2 1084.42 368.108C1081.74 369.978 1081.01 372.472 1082.25 375.517C1083.13 377.711 1084.71 379.336 1086.58 380.69C1088.38 381.986 1090.4 382.854 1092.54 383.376C1096.14 384.253 1099.32 386 1102.42 387.949C1105.97 390.174 1108.68 393.255 1111.26 396.456C1113.34 399.048 1114 402.187 1114.16 405.422C1114.26 407.515 1114.23 409.619 1114.17 411.715C1114.09 414.63 1113.18 417.277 1111.27 419.52C1108.73 422.521 1105.94 425.278 1102.75 427.608C1099.14 430.243 1095.06 431.863 1090.71 432.565C1087.48 433.086 1084.17 433.17 1080.88 432.815C1079.98 432.718 1079.07 432.73 1078.17 432.636C1074.46 432.247 1071.06 431.032 1068.09 428.749C1066.99 427.901 1066.18 426.785 1065.62 425.512C1064.45 422.852 1064.89 420.789 1067.14 418.592C1068.15 417.618 1069.36 417.084 1070.78 416.845C1073.68 416.352 1076.6 416.403 1079.52 416.464C1083.08 416.538 1086.65 416.671 1090.17 415.955C1091.4 415.703 1092.65 415.295 1093.76 414.714C1096.29 413.393 1098.43 409.794 1095.96 406.049C1094.42 403.721 1092.51 401.791 1090.05 400.454C1086.77 398.666 1083.47 396.923 1080.16 395.173C1078.31 394.191 1076.38 393.335 1074.6 392.239C1072.82 391.142 1071.11 389.908 1069.5 388.571C1066.96 386.461 1065.42 383.752 1064.82 380.452C1064.18 377.003 1064.23 373.556 1064.48 370.1C1064.75 366.35 1066.76 363.409 1069.2 360.75C1070.49 359.341 1071.96 358.085 1073.38 356.808C1076.3 354.203 1079.72 352.962 1083.64 352.977C1088.3 352.995 1092.96 352.879 1097.61 352.873C1100.08 352.87 1102.55 352.916 1104.97 353.446C1107.49 354 1109.14 355.525 1109.97 357.993C1110.61 359.927 1110.17 361.605 1108.88 363.08C1107.71 364.423 1106.21 365.227 1104.44 365.598C1101.64 366.185 1098.81 366.068 1095.98 366.087C1093.7 366.102 1091.42 366.172 1088.92 366.295Z" fill="white"/>
<path d="M760.41 416.43C763.398 416.412 766.136 416.373 768.874 416.375C771.61 416.377 774.354 416.314 777.08 416.49C778.411 416.577 779.747 417.045 781.016 417.516C783.066 418.277 784.217 419.946 784.703 421.978C785.295 424.448 785.026 426.892 783.705 429.115C782.692 430.818 781.311 432.132 779.252 432.44C777.724 432.669 776.18 432.935 774.642 432.938C765.051 432.956 755.458 432.948 745.868 432.84C744.069 432.82 742.234 432.466 740.49 431.993C737.533 431.192 735.97 429.039 735.553 426.071C735.376 424.811 735.336 423.523 735.335 422.248C735.322 402.799 735.321 383.351 735.334 363.902C735.335 361.989 735.348 360.07 735.961 358.215C736.882 355.427 738.788 353.805 741.683 353.414C742.668 353.281 743.691 353.268 744.682 353.361C748.435 353.713 750.734 355.752 751.348 359.482C751.702 361.632 751.849 363.835 751.872 366.016C751.919 370.487 751.799 374.96 751.786 379.432C751.767 386.006 751.794 392.581 751.772 399.155C751.766 400.702 751.557 402.251 751.593 403.796C751.646 406.071 751.733 408.354 751.994 410.613C752.267 412.985 753.657 414.66 755.911 415.439C757.277 415.912 758.74 416.107 760.41 416.43Z" fill="white"/>
</svg>
